<svg width="533" height="105" viewBox="0 0 533 105" fill="none" xmlns="http://www.w3.org/2000/svg">
<path d="M175.44 82.96C169.733 82.96 164.56 81.7333 159.92 79.28C155.333 76.7733 151.707 73.3333 149.04 68.96C146.427 64.5333 145.12 59.5467 145.12 54C145.12 48.4533 146.427 43.4933 149.04 39.12C151.707 34.6933 155.333 31.2533 159.92 28.8C164.56 26.2933 169.76 25.04 175.52 25.04C180.373 25.04 184.747 25.8933 188.64 27.6C192.587 29.3067 195.893 31.76 198.56 34.96L190.24 42.64C186.453 38.2667 181.76 36.08 176.16 36.08C172.693 36.08 169.6 36.8533 166.88 38.4C164.16 39.8933 162.027 42 160.48 44.72C158.987 47.44 158.24 50.5333 158.24 54C158.24 57.4667 158.987 60.56 160.48 63.28C162.027 66 164.16 68.1333 166.88 69.68C169.6 71.1733 172.693 71.92 176.16 71.92C181.76 71.92 186.453 69.7067 190.24 65.28L198.56 72.96C195.893 76.2133 192.587 78.6933 188.64 80.4C184.693 82.1067 180.293 82.96 175.44 82.96ZM230.923 82.96C222.923 82.96 216.683 80.7467 212.203 76.32C207.776 71.8933 205.563 65.5733 205.563 57.36V26H218.523V56.88C218.523 66.9067 222.683 71.92 231.003 71.92C235.056 71.92 238.15 70.72 240.283 68.32C242.416 65.8667 243.483 62.0533 243.483 56.88V26H256.283V57.36C256.283 65.5733 254.043 71.8933 249.563 76.32C245.136 80.7467 238.923 82.96 230.923 82.96ZM292.53 26C297.49 26 301.783 26.8267 305.41 28.48C309.09 30.1333 311.917 32.48 313.89 35.52C315.863 38.56 316.85 42.16 316.85 46.32C316.85 50.4267 315.863 54.0267 313.89 57.12C311.917 60.16 309.09 62.5067 305.41 64.16C301.783 65.76 297.49 66.56 292.53 66.56H281.25V82H268.29V26H292.53ZM291.81 56C295.703 56 298.663 55.1733 300.69 53.52C302.717 51.8133 303.73 49.4133 303.73 46.32C303.73 43.1733 302.717 40.7733 300.69 39.12C298.663 37.4133 295.703 36.56 291.81 36.56H281.25V56H291.81ZM349.543 26C354.503 26 358.796 26.8267 362.423 28.48C366.103 30.1333 368.929 32.48 370.903 35.52C372.876 38.56 373.863 42.16 373.863 46.32C373.863 50.4267 372.876 54.0267 370.903 57.12C368.929 60.16 366.103 62.5067 362.423 64.16C358.796 65.76 354.503 66.56 349.543 66.56H338.263V82H325.303V26H349.543ZM348.823 56C352.716 56 355.676 55.1733 357.703 53.52C359.729 51.8133 360.743 49.4133 360.743 46.32C360.743 43.1733 359.729 40.7733 357.703 39.12C355.676 37.4133 352.716 36.56 348.823 36.56H338.263V56H348.823ZM382.315 26H395.275V82H382.315V26ZM459.125 26V82H448.485L420.565 48V82H407.765V26H418.485L446.325 60V26H459.125ZM498.694 82.96C492.881 82.96 487.628 81.7067 482.934 79.2C478.294 76.6933 474.641 73.2533 471.974 68.88C469.361 64.4533 468.054 59.4933 468.054 54C468.054 48.5067 469.361 43.5733 471.974 39.2C474.641 34.7733 478.294 31.3067 482.934 28.8C487.628 26.2933 492.881 25.04 498.694 25.04C504.508 25.04 509.734 26.2933 514.374 28.8C519.014 31.3067 522.668 34.7733 525.334 39.2C528.001 43.5733 529.334 48.5067 529.334 54C529.334 59.4933 528.001 64.4533 525.334 68.88C522.668 73.2533 519.014 76.6933 514.374 79.2C509.734 81.7067 504.508 82.96 498.694 82.96ZM498.694 71.92C502.001 71.92 504.988 71.1733 507.654 69.68C510.321 68.1333 512.401 66 513.894 63.28C515.441 60.56 516.214 57.4667 516.214 54C516.214 50.5333 515.441 47.44 513.894 44.72C512.401 42 510.321 39.8933 507.654 38.4C504.988 36.8533 502.001 36.08 498.694 36.08C495.388 36.08 492.401 36.8533 489.734 38.4C487.068 39.8933 484.961 42 483.414 44.72C481.921 47.44 481.174 50.5333 481.174 54C481.174 57.4667 481.921 60.56 483.414 63.28C484.961 66 487.068 68.1333 489.734 69.68C492.401 71.1733 495.388 71.92 498.694 71.92Z" fill="#48332F"/>
<path d="M74.4156 91.351C82.296 84.2952 75.3404 63.672 58.8799 45.2876C42.4193 26.9033 22.6871 17.7197 14.8067 24.7754C6.92633 31.8312 13.8819 52.4544 30.3425 70.8388C46.803 89.2231 66.5352 98.4067 74.4156 91.351Z" fill="#4BBC56"/>
<path d="M99.5002 33.4999C113.045 50.307 118.479 70.0963 111.804 75.4758C103.5 82.9999 88.737 71.5914 75.1923 54.7842C61.6476 37.9771 55.5 19.5 62.754 14.6117C72.0002 8.49987 85.9555 16.6927 99.5002 33.4999Z" fill="#4BBC56"/>
<path d="M39.5 3.50001C64 2.49999 98.4489 11.9962 111.5 55.4996C124.1 97.5 89.5121 88.3494 75 69C63 53 32.9998 8.42851 15 23C-5.99997 40.0001 36 114.5 90.9999 100" stroke="#48332F" stroke-width="6" stroke-linecap="round" stroke-linejoin="round"/>
</svg>
