<?xml version="1.0" encoding="utf-8"?>
<!-- Generator: Adobe Illustrator 27.5.0, SVG Export Plug-In . SVG Version: 6.00 Build 0)  -->
<svg version="1.1" xmlns="http://www.w3.org/2000/svg" xmlns:xlink="http://www.w3.org/1999/xlink" x="0px" y="0px"
	 viewBox="0 0 500 500" style="enable-background:new 0 0 500 500;" xml:space="preserve">
<g id="Floor">
	<g>
		<path style="fill:#F5F5F5;" d="M412.311,256.387c90.226,49.731,90.701,130.362,1.062,180.094
			c-89.639,49.732-235.451,49.732-325.677,0.001c-90.233-49.735-90.709-130.366-1.069-180.098S322.078,206.652,412.311,256.387z"/>
	</g>
</g>
<g id="Shadows">
	<g>
		<path style="fill:#E6E6E6;" d="M135.755,392.53l16.577,9.634c2.572,1.494,5.747,1.494,8.318-0.001l134.775-78.365
			c1.83-1.064,1.829-3.707-0.001-4.77l-16.577-9.633c-2.572-1.495-5.747-1.494-8.319,0.001L135.754,387.76
			C133.924,388.824,133.925,391.467,135.755,392.53z"/>
	</g>
	<g>
		<path style="fill:#E6E6E6;" d="M364.659,368.199c19.933,11.508,20.038,30.167,0.234,41.676c-19.803,11.508-52.016,11.508-71.949,0
			c-19.934-11.509-20.039-30.168-0.236-41.677C312.512,356.69,344.724,356.69,364.659,368.199z"/>
	</g>
</g>
<g id="Plants">
	<g>
		<path style="fill:#BA68C8;" d="M121.709,321.117c-2.641-2.526-5.663-5.285-5.849-8.934c-0.166-3.252,2.219-6.303,5.255-7.479
			c3.036-1.175,6.535-0.689,9.47,0.72c2.935,1.409,5.38,3.664,7.58,6.064c12.862,14.037,18.37,34.467,14.309,53.067
			c-0.268,1.23-0.681,2.592-1.793,3.182c-1.765,0.936-3.775-0.708-4.98-2.301c-2.628-3.473-4.615-7.427-5.86-11.6
			c-1.054-3.531-0.58-7.437-1.911-10.771C134.667,334.894,127.988,327.122,121.709,321.117z"/>
		<g>
			<path style="fill:#FFFFFF;" d="M149.15,362.96h-0.002c-0.389-0.001-0.702-0.316-0.702-0.705
				c0.036-20.31-9.865-40.721-25.836-53.267c-0.306-0.24-0.359-0.682-0.119-0.988c0.241-0.306,0.683-0.357,0.988-0.118
				c16.305,12.807,26.41,33.643,26.375,54.376C149.854,362.646,149.538,362.96,149.15,362.96z"/>
		</g>
		<path style="fill:#BA68C8;" d="M140.5,390.954c-4.449,1.431-10.023,0.497-12.598-3.403c-3.025-4.582-1.132-11.639-5.188-15.34
			c-2.268-2.069-5.6-2.275-8.606-2.897c-3.006-0.622-6.349-2.283-6.796-5.32c-0.593-4.031,4.354-7.37,3.657-11.384
			c-0.685-3.949-6.146-5.195-7.76-8.864c-1.473-3.348,1.13-7.403,4.568-8.65c3.438-1.247,7.276-0.391,10.706,0.879
			c3.43,1.27,6.768,2.959,10.398,3.405c3.774,0.464,8.143-0.277,10.919,2.321c3.708,3.47,1.586,10.086,4.455,14.277
			c1.92,2.805,5.543,3.781,8.314,5.75c3.46,2.459,5.588,6.686,5.503,10.929c-0.092,4.611-2.519,7.94-5.999,10.596
			C148.376,386.076,145.072,389.484,140.5,390.954z"/>
		<path style="opacity:0.2;" d="M140.5,390.954c-4.449,1.431-10.023,0.497-12.598-3.403c-3.025-4.582-1.132-11.639-5.188-15.34
			c-2.268-2.069-5.6-2.275-8.606-2.897c-3.006-0.622-6.349-2.283-6.796-5.32c-0.593-4.031,4.354-7.37,3.657-11.384
			c-0.685-3.949-6.146-5.195-7.76-8.864c-1.473-3.348,1.13-7.403,4.568-8.65c3.438-1.247,7.276-0.391,10.706,0.879
			c3.43,1.27,6.768,2.959,10.398,3.405c3.774,0.464,8.143-0.277,10.919,2.321c3.708,3.47,1.586,10.086,4.455,14.277
			c1.92,2.805,5.543,3.781,8.314,5.75c3.46,2.459,5.588,6.686,5.503,10.929c-0.092,4.611-2.519,7.94-5.999,10.596
			C148.376,386.076,145.072,389.484,140.5,390.954z"/>
		<path style="fill:#FFFFFF;" d="M138.495,359.441c-0.017-0.024-0.032-0.049-0.052-0.071c-0.666-0.964-1.355-1.911-2.087-2.825
			c-6.493-8.1-15.567-14.135-25.546-16.993c-0.382-0.111-0.764,0.109-0.87,0.482c-0.107,0.374,0.109,0.763,0.482,0.87
			c9.701,2.779,18.522,8.646,24.837,16.521c0.2,0.249,0.374,0.517,0.569,0.77c-7.961-2.929-16.086-1.266-20.417,2.225
			c-0.302,0.244-0.35,0.686-0.107,0.989c0.139,0.173,0.343,0.262,0.548,0.262c0.155,0,0.312-0.051,0.441-0.156
			c4.288-3.453,13.138-4.995,21.168-1.108c4.992,7.318,7.992,16.012,8.52,24.855c0.022,0.374,0.333,0.662,0.702,0.662
			c0.014,0,0.028-0.001,0.043-0.001c0.387-0.023,0.683-0.357,0.66-0.744C146.838,376.012,143.702,367.005,138.495,359.441z"/>
	</g>
</g>
<g id="Clouds">
	<g>
		<g>
			<path style="fill:#E6E6E6;" d="M108.136,75.621c-4.551,2.628-8.481,7.918-10.368,13.401c-1.043,0.095-2.185,0.475-3.386,1.168
				c-0.241,0.139-0.484,0.29-0.729,0.455c-3.836,2.569-7.05,7.727-7.799,12.505c-0.232,1.479-0.213,2.776-0.006,3.884
				c0.039,0.209-0.109,0.511-0.316,0.63l-4.688,2.707c-2.049,1.183-3.703,4.048-3.697,6.403c0.007,2.355,1.672,3.303,3.721,2.12
				l45.866-26.481c2.049-1.183,3.703-4.048,3.697-6.403s-1.672-3.303-3.721-2.12l-7.511,4.336c-0.23,0.132-0.387-0.044-0.301-0.335
				c0.686-2.306,1-4.622,0.831-6.762c-0.492-6.206-5.091-8.763-10.739-5.967C108.703,75.306,108.419,75.458,108.136,75.621z"/>
		</g>
		<g>
			<path style="fill:#E6E6E6;" d="M82.798,53.624c-3.142,1.814-5.854,5.465-7.156,9.25c-0.72,0.065-1.508,0.328-2.337,0.806
				c-0.166,0.096-0.334,0.201-0.503,0.314c-2.648,1.773-4.866,5.333-5.383,8.631c-0.16,1.021-0.147,1.916-0.004,2.681
				c0.027,0.144-0.075,0.353-0.218,0.435l-3.236,1.868c-1.414,0.817-2.556,2.794-2.552,4.419c0.005,1.625,1.154,2.28,2.568,1.464
				l31.658-18.277c1.414-0.817,2.556-2.794,2.551-4.42c-0.005-1.625-1.154-2.28-2.568-1.464l-5.184,2.993
				c-0.158,0.091-0.267-0.03-0.208-0.231c0.474-1.592,0.69-3.19,0.574-4.668c-0.34-4.283-3.514-6.049-7.412-4.118
				C83.189,53.406,82.993,53.512,82.798,53.624z"/>
		</g>
	</g>
</g>
<g id="Device">
	<g>
		<path style="fill:#37474F;" d="M287.763,44.386l0.009-0.009c-0.904-3.173-7.345-9.205-13.755-9.078
			c-0.232-0.002-1.384,0.116-1.8,0.353L147.706,106.49c-2.117,1.204-3.751,3.013-4.786,5.128c-0.785,1.603-1.235,3.377-1.235,5.224
			v269.326c0,6.861,7.911,13.408,15.338,10.258c0.019-0.008,0.031-0.027,0.05-0.035c0.16-0.058,0.322-0.104,0.477-0.193
			l124.516-70.956c3.718-2.119,6.013-6.069,6.013-10.348V45.683C288.081,45.204,287.953,44.774,287.763,44.386z"/>
		<path style="fill:#BA68C8;" d="M159.055,145.309c0-2.141,1.149-4.117,3.01-5.176l115.61-65.773c1.985-1.129,4.45,0.304,4.45,2.588
			v217.174c0,2.134-1.153,4.117-3.008,5.176l-115.61,65.879c-1.985,1.131-4.452-0.302-4.452-2.587V145.309z"/>
		<path style="opacity:0.5;fill:#FFFFFF;" d="M159.055,145.309c0-2.141,1.149-4.117,3.01-5.176l115.61-65.773
			c1.985-1.129,4.45,0.304,4.45,2.588v217.174c0,2.134-1.153,4.117-3.008,5.176l-115.61,65.879
			c-1.985,1.131-4.452-0.302-4.452-2.587V145.309z"/>
		<path style="fill:#263238;" d="M141.685,116.842v269.326c0,6.861,7.911,13.408,15.338,10.258c0.019-0.008,0.031-0.027,0.05-0.035
			c-1.882,0.682-3.975-0.674-3.975-2.78V124.286c0-2.386,0.735-4.656,2.011-6.577l-12.19-6.091
			C142.135,113.221,141.685,114.995,141.685,116.842z"/>
		<path style="fill:#455A64;" d="M274.017,35.299c-0.232-0.002-1.384,0.116-1.8,0.353L147.706,106.49
			c-2.117,1.204-3.751,3.013-4.786,5.128l12.19,6.091c1.014-1.526,2.362-2.837,4.009-3.775L283.63,43.095
			c1.568-0.892,3.417-0.172,4.132,1.29l0.009-0.009C286.868,41.204,280.427,35.172,274.017,35.299z"/>
		<g>
			<g>
				<path style="fill:#263238;" d="M235.936,87.569c0.875-0.505,1.599-0.114,1.602,0.891c0.003,1.005-0.717,2.252-1.592,2.757
					l-24.428,14.104c-0.874,0.505-1.58,0.081-1.583-0.924c-0.003-1.005,0.698-2.219,1.573-2.724L235.936,87.569z"/>
			</g>
			<g>
				<path style="fill:#263238;" d="M205.234,105.295c0.874-0.505,1.58-0.103,1.583,0.902c0.003,1.005-0.698,2.241-1.573,2.746
					c-0.874,0.505-1.599,0.092-1.602-0.913C203.639,107.025,204.359,105.8,205.234,105.295z"/>
			</g>
		</g>
		<g>
			<path style="fill:#263238;" d="M220.87,85.518c1.747-1.009,3.157-0.205,3.163,1.802c0.006,2.008-1.395,4.477-3.142,5.486
				c-1.747,1.009-3.195,0.183-3.201-1.824C217.684,88.975,219.123,86.527,220.87,85.518z"/>
		</g>
		<g>
			<path style="fill:#263238;" d="M220.879,339.066c3.559-2.054,6.43-0.419,6.441,3.67c0.012,4.089-2.841,9.119-6.399,11.174
				c-3.558,2.055-6.507,0.373-6.519-3.715C214.39,346.106,217.321,341.121,220.879,339.066z"/>
		</g>
		<g>
			<g>
				<path style="fill:#BA68C8;" d="M211.233,121.633c1.528-0.882,2.365-0.325,2.37,1.497l0.017,5.919
					c0.005,1.822-0.826,3.342-2.354,4.224c-1.528,0.882-2.365,0.325-2.37-1.497l-0.017-5.919
					C208.874,124.035,209.705,122.515,211.233,121.633z M212.061,130.066l-0.018-6.153c-0.002-0.812-0.309-0.943-0.805-0.656
					c-0.497,0.287-0.808,0.774-0.805,1.586l0.017,6.153c0.002,0.812,0.315,0.939,0.812,0.653
					C211.758,131.361,212.063,130.878,212.061,130.066"/>
			</g>
			<g>
				<polygon style="fill:#BA68C8;" points="218.957,117.305 218.962,118.929 217.338,119.867 217.366,129.619 215.806,130.52 
					215.778,120.767 214.148,121.708 214.144,120.084 				"/>
			</g>
			<g>
				<polygon style="fill:#BA68C8;" points="223.879,114.464 223.883,116.088 221.196,117.639 221.205,120.807 223.345,119.572 
					223.349,121.203 221.21,122.438 221.219,125.767 223.906,124.216 223.911,125.84 219.671,128.288 219.638,116.912 				"/>
			</g>
			<g>
				<polygon style="fill:#BA68C8;" points="228.59,111.743 228.618,121.496 231.184,120.014 231.188,121.638 227.069,124.017 
					227.036,112.64 				"/>
			</g>
			<g>
				<polygon style="fill:#BA68C8;" points="233.391,108.972 233.423,120.348 231.863,121.249 231.831,109.872 				"/>
			</g>
			<g>
				<path style="fill:#BA68C8;" d="M236.612,106.98c1.515-0.875,2.295-0.285,2.3,1.537l0.001,0.358l-1.471,0.849l-0.001-0.476
					c-0.002-0.812-0.283-0.958-0.78-0.671c-0.497,0.287-0.776,0.756-0.774,1.568c0.002,0.834,0.316,1.269,1.338,1.705
					c1.303,0.567,1.719,1.272,1.723,2.574c0.005,1.822-0.788,3.32-2.316,4.202c-1.528,0.882-2.32,0.299-2.326-1.523l-0.002-0.702
					l1.471-0.849l0.002,0.819c0.002,0.812,0.315,0.925,0.805,0.642c0.497-0.287,0.808-0.759,0.805-1.572
					c-0.002-0.834-0.316-1.268-1.338-1.704c-1.303-0.567-1.719-1.272-1.723-2.574C234.323,109.342,235.097,107.855,236.612,106.98z"
					/>
			</g>
			<g>
				<polygon style="fill:#BA68C8;" points="244.17,102.748 244.174,104.373 242.544,105.314 242.572,115.066 241.019,115.963 
					240.991,106.211 239.361,107.152 239.356,105.527 				"/>
			</g>
			<g>
				<path style="fill:#FFFFFF;" d="M229.664,141.828c1.146-0.662,1.772-0.239,1.776,1.129l0.013,4.433
					c0.004,1.368-0.618,2.511-1.764,3.173c-1.146,0.662-1.779,0.243-1.782-1.125l-0.013-4.433
					C227.889,143.637,228.518,142.49,229.664,141.828z M230.287,148.151l-0.013-4.609c-0.002-0.607-0.238-0.705-0.607-0.492
					c-0.376,0.217-0.604,0.583-0.602,1.191l0.013,4.609c0.002,0.607,0.232,0.709,0.607,0.492
					C230.054,149.129,230.289,148.758,230.287,148.151"/>
			</g>
			<g>
				<path style="fill:#BA68C8;" d="M229.667,143.05c0.369-0.213,0.605-0.115,0.607,0.492l0.013,4.609
					c0.002,0.607-0.233,0.978-0.603,1.191c-0.376,0.217-0.605,0.115-0.607-0.492l-0.013-4.609
					C229.063,143.633,229.292,143.267,229.667,143.05z"/>
			</g>
			<g>
				<path style="fill:#BA68C8;" d="M219.417,149.063c0.414-0.239,0.593-0.072,0.595,0.536l0.003,0.841
					c0.002,0.688-0.265,1.062-0.698,1.312l-0.458,0.264l-0.007-2.626L219.417,149.063z"/>
			</g>
			<g>
				<path style="fill:#BA68C8;" d="M215.157,151.427c0.376-0.217,0.606-0.115,0.607,0.492l0.013,4.609
					c0.002,0.607-0.227,0.974-0.603,1.191c-0.369,0.213-0.605,0.115-0.607-0.492l-0.013-4.609
					C214.553,152.011,214.788,151.641,215.157,151.427z"/>
			</g>
			<g>
				<polygon style="fill:#FFFFFF;" points="222.753,176.317 222.756,177.532 220.744,178.693 220.751,181.071 222.349,180.148 
					222.353,181.37 220.755,182.293 220.762,184.795 222.774,183.633 222.777,184.848 219.594,186.686 219.569,178.155 				"/>
			</g>
			<g>
				<polygon style="fill:#FFFFFF;" points="226.745,174.012 226.748,175.227 225.526,175.932 225.547,183.249 224.382,183.921 
					224.361,176.605 223.138,177.311 223.135,176.096 				"/>
			</g>
			<g>
				<polygon style="fill:#FFFFFF;" points="228.419,173.045 228.444,181.576 227.279,182.249 227.254,173.718 				"/>
			</g>
			<g>
				<polygon style="fill:#FFFFFF;" points="232.965,170.421 232.99,178.951 231.786,179.646 230.336,174.291 230.317,174.302 
					230.335,180.484 229.284,181.091 229.26,172.56 230.724,171.715 231.917,176.141 231.936,176.13 231.921,171.024 				"/>
			</g>
			<g>
				<path style="fill:#FFFFFF;" d="M235.448,168.885c1.146-0.662,1.74-0.221,1.744,1.147l0.002,0.827l-1.102,0.636l-0.003-0.915
					c-0.002-0.607-0.238-0.705-0.607-0.492c-0.376,0.217-0.604,0.583-0.603,1.19l0.013,4.609c0.002,0.607,0.231,0.694,0.607,0.478
					c0.369-0.213,0.604-0.569,0.602-1.176l-0.004-1.573l-0.535,0.309l-0.003-1.222l1.636-0.945l0.008,2.707
					c0.004,1.368-0.586,2.493-1.732,3.154c-1.146,0.662-1.747,0.224-1.751-1.144l-0.013-4.434
					C233.706,170.675,234.302,169.546,235.448,168.885z"/>
			</g>
			<g>
				<path style="fill:#BA68C8;" d="M224.746,206.684c0.369-0.213,0.605-0.115,0.607,0.492l0.013,4.609
					c0.002,0.615-0.233,0.977-0.602,1.191c-0.376,0.217-0.605,0.122-0.607-0.492l-0.013-4.609
					C224.141,207.268,224.37,206.901,224.746,206.684z"/>
			</g>
			<g>
				<path style="fill:#FFFFFF;" d="M218.891,208.848c1.146-0.662,1.779-0.25,1.782,1.118l0.013,4.441
					c0.004,1.361-0.624,2.508-1.77,3.169c-1.146,0.662-1.772,0.239-1.776-1.122l-0.013-4.441
					C217.123,210.645,217.745,209.51,218.891,208.848z M219.515,215.164l-0.013-4.609c-0.002-0.607-0.232-0.709-0.607-0.492
					c-0.369,0.213-0.604,0.583-0.602,1.19l0.013,4.609c0.002,0.615,0.238,0.705,0.607,0.492
					C219.288,216.137,219.517,215.778,219.515,215.164"/>
			</g>
			<g>
				<path style="fill:#BA68C8;" d="M218.895,210.063c0.376-0.217,0.606-0.115,0.607,0.492l0.013,4.609
					c0.002,0.615-0.227,0.974-0.602,1.191c-0.369,0.213-0.605,0.122-0.607-0.492l-0.013-4.609
					C218.29,210.646,218.525,210.276,218.895,210.063z"/>
			</g>
			<g>
				<path style="fill:#FFFFFF;" d="M205.101,216.81c1.146-0.662,1.74-0.228,1.744,1.14l0.002,0.827l-1.102,0.636l-0.003-0.915
					c-0.002-0.607-0.238-0.705-0.607-0.492c-0.376,0.217-0.604,0.583-0.602,1.19l0.013,4.609c0.002,0.615,0.232,0.702,0.607,0.485
					c0.369-0.213,0.604-0.569,0.602-1.183l-0.004-1.573l-0.535,0.309l-0.003-1.214l1.636-0.945l0.008,2.707
					c0.004,1.361-0.586,2.486-1.732,3.147c-1.146,0.662-1.747,0.225-1.751-1.136l-0.012-4.441
					C203.358,218.593,203.954,217.472,205.101,216.81z"/>
			</g>
			<g>
				<polygon style="fill:#FFFFFF;" points="216.708,210.204 216.711,211.426 215.489,212.131 215.509,219.447 214.344,220.12 
					214.324,212.804 213.101,213.51 213.098,212.288 				"/>
			</g>
			<g>
				<path style="fill:#FFFFFF;" d="M224.742,205.47c1.146-0.662,1.772-0.247,1.776,1.122l0.013,4.441
					c0.004,1.361-0.618,2.504-1.764,3.166c-1.146,0.662-1.779,0.243-1.782-1.118l-0.013-4.441
					C222.968,207.271,223.596,206.131,224.742,205.47z M225.366,211.785l-0.013-4.609c-0.002-0.607-0.238-0.705-0.607-0.492
					c-0.376,0.217-0.604,0.583-0.602,1.19l0.013,4.609c0.002,0.615,0.232,0.709,0.607,0.492
					C225.133,212.763,225.368,212.4,225.366,211.785"/>
			</g>
			<g>
				<polygon style="fill:#FFFFFF;" points="234.007,200.216 234.01,201.438 232.087,202.548 232.094,205.116 233.603,204.245 
					233.607,205.467 232.098,206.338 232.108,209.864 230.943,210.537 230.918,201.999 				"/>
			</g>
			<g>
				<polygon style="fill:#FFFFFF;" points="235.732,199.22 235.756,207.758 234.591,208.431 234.567,199.893 				"/>
			</g>
			<g>
				<path style="fill:#FFFFFF;" d="M238.227,197.684c1.146-0.662,1.74-0.228,1.744,1.14l0.002,0.827l-1.101,0.636l-0.003-0.914
					c-0.002-0.607-0.238-0.705-0.607-0.492c-0.369,0.213-0.604,0.583-0.602,1.191l0.013,4.609c0.002,0.615,0.238,0.698,0.607,0.485
					c0.369-0.213,0.604-0.569,0.602-1.183l-0.003-1.214l1.102-0.636l0.003,1.134c0.004,1.361-0.586,2.485-1.732,3.147
					c-1.146,0.662-1.74,0.221-1.744-1.14l-0.013-4.441C236.492,199.463,237.081,198.346,238.227,197.684z"/>
			</g>
			<g>
				<polygon style="fill:#FFFFFF;" points="243.862,194.526 243.866,195.748 241.848,196.913 241.854,199.291 243.459,198.365 
					243.462,199.579 241.858,200.505 241.865,203.007 243.883,201.842 243.887,203.064 240.703,204.902 240.679,196.364 				"/>
			</g>
			<g>
				<polygon style="fill:#FFFFFF;" points="231.361,232.14 231.365,233.362 230.149,234.064 230.169,241.38 228.998,242.057 
					228.977,234.741 227.761,235.443 227.757,234.221 				"/>
			</g>
			<g>
				<path style="fill:#FFFFFF;" d="M234.061,230.582l1.208,7.854l-1.178,0.68l-0.202-1.437l-1.433,0.827l-0.199,1.669l-1.069,0.618
					l1.16-9.222L234.061,230.582z M232.6,237.265l1.127-0.65l-0.566-3.997l-0.019,0.011L232.6,237.265"/>
			</g>
			<g>
				<polygon style="fill:#BA68C8;" points="233.142,232.629 233.161,232.618 233.727,236.615 232.6,237.265 				"/>
			</g>
			<g>
				<path style="fill:#FFFFFF;" d="M210.064,244.341c1.146-0.662,1.779-0.25,1.783,1.118l0.012,4.441
					c0.004,1.361-0.624,2.508-1.77,3.169c-1.146,0.662-1.772,0.239-1.776-1.122l-0.013-4.441
					C208.296,246.139,208.918,245.003,210.064,244.341z M210.687,250.657l-0.013-4.609c-0.002-0.607-0.232-0.709-0.607-0.492
					c-0.369,0.213-0.604,0.583-0.603,1.191l0.013,4.609c0.002,0.614,0.238,0.705,0.607,0.492
					C210.46,251.63,210.689,251.271,210.687,250.657"/>
			</g>
			<g>
				<path style="fill:#BA68C8;" d="M210.067,245.555c0.376-0.217,0.605-0.115,0.607,0.492l0.013,4.609
					c0.002,0.615-0.227,0.974-0.603,1.19c-0.369,0.213-0.605,0.122-0.607-0.492l-0.013-4.609
					C209.463,246.139,209.698,245.769,210.067,245.555z"/>
			</g>
			<g>
				<polygon style="fill:#FFFFFF;" points="217.507,240.139 217.51,241.361 216.288,242.067 216.309,249.383 215.143,250.055 
					215.123,242.739 213.9,243.445 213.897,242.223 				"/>
			</g>
			<g>
				<polygon style="fill:#FFFFFF;" points="221.696,237.72 221.72,246.258 220.53,246.946 220.52,243.288 219.195,244.052 
					219.205,247.71 218.04,248.383 218.016,239.845 219.181,239.172 219.192,242.83 220.516,242.066 220.506,238.408 				"/>
			</g>
			<g>
				<polygon style="fill:#FFFFFF;" points="225.727,235.393 225.73,236.615 223.718,237.777 223.725,240.155 225.323,239.232 
					225.326,240.446 223.728,241.369 223.735,243.871 225.747,242.71 225.751,243.931 222.567,245.769 222.543,237.231 				"/>
			</g>
			<g>
				<path style="fill:#FFFFFF;" d="M237.358,228.583c1.133-0.654,1.721-0.217,1.725,1.151l0.001,0.271l-1.101,0.636l-0.001-0.359
					c-0.002-0.607-0.219-0.716-0.588-0.503c-0.369,0.213-0.585,0.572-0.583,1.18c0.002,0.622,0.239,0.954,1.005,1.281
					c0.977,0.425,1.291,0.948,1.294,1.928c0.004,1.361-0.592,2.489-1.739,3.151c-1.146,0.662-1.74,0.221-1.744-1.14l-0.001-0.527
					l1.101-0.636l0.002,0.607c0.002,0.614,0.238,0.698,0.607,0.485c0.376-0.217,0.604-0.569,0.602-1.183
					c-0.002-0.622-0.232-0.95-0.998-1.278c-0.983-0.422-1.291-0.955-1.294-1.928C235.642,230.35,236.225,229.237,237.358,228.583z"
					/>
			</g>
			<g>
				<polygon style="fill:#FFFFFF;" points="243.617,225.064 242.005,229.806 243.642,233.602 242.445,234.293 241.302,231.546 
					240.941,232.53 240.948,235.157 239.783,235.83 239.759,227.292 240.924,226.619 240.935,230.314 240.954,230.303 
					242.452,225.737 				"/>
			</g>
			<g>
				<path style="fill:#FFFFFF;" d="M188.625,254.176c1.032-0.595,1.875-0.115,1.878,1.07l0.026,9.328
					c0.003,1.185-0.834,2.636-1.866,3.232l-8.436,4.871c-1.031,0.595-1.875,0.115-1.878-1.07l-0.026-9.328
					c-0.003-1.185,0.834-2.636,1.866-3.232L188.625,254.176z"/>
			</g>
			<g style="enable-background:new    ;">
				<g>
					<polygon style="fill:#FFFFFF;" points="237.655,258.903 237.658,260.125 235.64,261.29 235.647,263.668 237.251,262.742 
						237.255,263.963 235.65,264.89 235.657,267.385 237.676,266.219 237.679,267.441 234.496,269.279 234.471,260.741 					"/>
				</g>
				<g>
					<polygon style="fill:#FFFFFF;" points="233.618,261.234 233.642,269.772 232.541,270.407 232.524,264.284 231.732,270.874 
						230.631,271.51 229.767,265.963 229.742,265.978 229.759,272.014 228.74,272.602 228.716,264.064 230.339,263.127 
						231.21,268.699 231.995,262.171 					"/>
				</g>
				<g>
					<path style="fill:#BA68C8;" d="M226.204,266.643c0.376-0.217,0.605-0.122,0.607,0.492l0.013,4.602
						c0.002,0.615-0.227,0.981-0.602,1.198c-0.369,0.213-0.606,0.115-0.607-0.5l-0.013-4.602
						C225.6,267.219,225.835,266.856,226.204,266.643z"/>
				</g>
				<g>
					<path style="fill:#FFFFFF;" d="M226.201,265.421c1.146-0.662,1.779-0.243,1.783,1.118l0.012,4.441
						c0.004,1.368-0.624,2.508-1.77,3.169c-1.146,0.662-1.772,0.247-1.776-1.122l-0.012-4.441
						C224.433,267.226,225.054,266.083,226.201,265.421z M226.824,271.737l-0.013-4.602c-0.002-0.615-0.232-0.709-0.607-0.492
						c-0.369,0.213-0.604,0.576-0.602,1.191l0.013,4.602c0.002,0.615,0.238,0.713,0.607,0.5
						C226.597,272.718,226.826,272.351,226.824,271.737"/>
				</g>
				<g>
					<polygon style="fill:#FFFFFF;" points="223.68,266.972 223.704,275.51 222.513,276.197 222.503,272.539 221.179,273.304 
						221.189,276.962 220.017,277.638 219.993,269.1 221.165,268.424 221.175,272.082 222.499,271.317 222.489,267.659 					"/>
				</g>
				<g>
					<path style="fill:#FFFFFF;" d="M215.822,271.413c1.146-0.662,1.779-0.243,1.782,1.118l0.013,4.441
						c0.004,1.368-0.624,2.508-1.77,3.169c-1.146,0.662-1.772,0.247-1.776-1.122l-0.013-4.441
						C214.055,273.217,214.676,272.074,215.822,271.413z M216.446,277.728l-0.013-4.602c-0.002-0.615-0.232-0.709-0.607-0.492
						c-0.369,0.213-0.604,0.576-0.603,1.191l0.013,4.602c0.002,0.615,0.238,0.713,0.607,0.5
						C216.219,278.71,216.448,278.343,216.446,277.728"/>
				</g>
				<g>
					<path style="fill:#BA68C8;" d="M215.826,272.634c0.376-0.217,0.605-0.122,0.607,0.492l0.013,4.602
						c0.002,0.615-0.227,0.981-0.602,1.198c-0.369,0.213-0.606,0.115-0.607-0.5l-0.013-4.602
						C215.222,273.21,215.457,272.848,215.826,272.634z"/>
				</g>
				<g>
					<path style="fill:#FFFFFF;" d="M211.652,273.82c1.146-0.662,1.747-0.224,1.751,1.137l0.002,0.834l-1.108,0.64l-0.003-0.914
						c-0.002-0.615-0.232-0.709-0.607-0.492c-0.369,0.213-0.604,0.576-0.602,1.191l0.013,4.602c0.002,0.615,0.238,0.698,0.607,0.485
						c0.376-0.217,0.604-0.569,0.603-1.183l-0.004-1.566l-0.529,0.305l-0.003-1.222l1.636-0.945l0.008,2.707
						c0.004,1.368-0.592,2.489-1.738,3.151c-1.146,0.662-1.74,0.228-1.744-1.14l-0.013-4.441
						C209.916,275.607,210.506,274.482,211.652,273.82z"/>
				</g>
				<g>
					<path style="fill:#BA68C8;" d="M205.891,248.069c0.369-0.213,0.593-0.122,0.594,0.485l0.013,4.441
						c0.002,0.607-0.22,0.955-0.59,1.169l-0.656,0.379l-0.017-6.094L205.891,248.069z"/>
				</g>
				<g>
					<path style="fill:#FFFFFF;" d="M205.906,246.837c1.165-0.673,1.74-0.257,1.744,1.104l0.012,4.316
						c0.004,1.368-0.567,2.445-1.732,3.118l-1.846,1.066l-0.024-8.538L205.906,246.837z M206.498,252.995l-0.013-4.441
						c-0.002-0.607-0.225-0.698-0.594-0.485l-0.656,0.379l0.017,6.094l0.656-0.379C206.277,253.95,206.499,253.602,206.498,252.995"
						/>
				</g>
				<g>
					<path style="fill:#FFFFFF;" d="M188.712,284.523c1.031-0.596,1.874-0.115,1.878,1.07l0.026,9.328
						c0.003,1.185-0.834,2.636-1.866,3.232l-8.436,4.871c-1.031,0.596-1.875,0.115-1.878-1.07l-0.027-9.328
						c-0.003-1.185,0.834-2.636,1.866-3.232L188.712,284.523z"/>
				</g>
				<g>
					<path style="fill:#BA68C8;" d="M268.504,235.098c1.955-1.129,3.539-0.219,3.545,2.027l0.035,12.196
						c0.006,2.246-1.568,4.979-3.522,6.108l-89.506,51.676c-1.955,1.129-3.545,0.222-3.551-2.024l-0.035-12.196
						c-0.006-2.246,1.574-4.983,3.529-6.112L268.504,235.098z M190.616,294.921l-0.026-9.328c-0.003-1.185-0.847-1.666-1.878-1.07
						l-8.436,4.871c-1.031,0.595-1.869,2.046-1.866,3.231l0.027,9.328c0.003,1.185,0.846,1.666,1.878,1.07l8.436-4.871
						C189.781,297.557,190.619,296.106,190.616,294.921 M233.642,269.772l-0.024-8.538l-1.624,0.938l-0.766,6.517l-0.89-5.561
						l-1.623,0.938l0.024,8.538l1.019-0.588l-0.017-6.036l0.025-0.015l0.864,5.547l1.102-0.636l0.772-6.58l0.036,6.113
						L233.642,269.772 M223.704,275.51l-0.024-8.538l-1.191,0.687l0.01,3.658l-1.324,0.765l-0.01-3.658l-1.171,0.676l0.024,8.538
						l1.172-0.676l-0.01-3.658l1.324-0.765l0.01,3.658L223.704,275.51 M217.617,276.972l-0.013-4.441
						c-0.004-1.361-0.636-1.78-1.782-1.118c-1.146,0.662-1.768,1.805-1.764,3.166l0.013,4.441c0.004,1.368,0.63,1.783,1.776,1.122
						C216.993,279.479,217.621,278.34,217.617,276.972 M227.995,270.98l-0.012-4.441c-0.004-1.361-0.637-1.78-1.783-1.118
						c-1.146,0.662-1.768,1.805-1.764,3.166l0.012,4.441c0.004,1.368,0.63,1.783,1.776,1.122
						C227.371,273.487,227.999,272.348,227.995,270.98 M213.405,275.791l-0.002-0.834c-0.004-1.361-0.605-1.798-1.751-1.137
						c-1.146,0.662-1.736,1.786-1.732,3.147l0.013,4.441c0.004,1.368,0.598,1.802,1.744,1.14c1.146-0.662,1.742-1.783,1.738-3.151
						l-0.008-2.707l-1.636,0.945l0.004,1.222l0.528-0.305l0.005,1.565c0.002,0.615-0.227,0.966-0.602,1.183
						c-0.369,0.213-0.605,0.13-0.607-0.485l-0.013-4.602c-0.002-0.615,0.233-0.978,0.602-1.191c0.376-0.217,0.605-0.122,0.607,0.492
						l0.003,0.914L213.405,275.791 M237.658,260.125l-0.004-1.222l-3.184,1.838l0.024,8.538l3.183-1.838l-0.003-1.222l-2.018,1.166
						l-0.007-2.495l1.604-0.926l-0.003-1.222l-1.604,0.926l-0.007-2.378L237.658,260.125"/>
				</g>
			</g>
			<g>
				<path style="fill:#FFFFFF;" d="M188.539,223.829c0.687-0.397,1.29-0.315,1.618,0.133l-6.352,10.287l-2.07-1.296l-3.161,0.843
					l5.396,4.887l6.451-12.255l0.022,7.8c0.003,1.185-0.834,2.636-1.866,3.232l-8.436,4.871c-1.031,0.596-1.875,0.115-1.878-1.07
					l-0.026-9.328c-0.003-1.185,0.834-2.636,1.866-3.231L188.539,223.829z"/>
			</g>
			<g>
				<path style="fill:#FFFFFF;" d="M253.022,286.096c0.68-0.392,1.36-0.488,1.878-0.193c1.041,0.593,1.047,2.525,0.012,4.316
					c-0.517,0.892-1.196,1.581-1.875,1.973c-0.679,0.392-1.358,0.487-1.875,0.192c-1.041-0.594-1.047-2.525-0.012-4.316
					C251.663,287.177,252.342,286.488,253.022,286.096z"/>
			</g>
			<g>
				<path style="fill:#BA68C8;" d="M259.698,291.625c0.313,0.186,0.314,0.779,0.004,1.317c-0.159,0.275-0.367,0.487-0.575,0.607
					c-0.208,0.12-0.415,0.148-0.571,0.055l-3.123-1.773c-0.719,0.978-1.556,1.742-2.393,2.225c-1.092,0.631-2.186,0.783-3.021,0.307
					c-1.673-0.954-1.682-4.07-0.02-6.95c0.828-1.434,1.92-2.543,3.015-3.175c1.095-0.632,2.191-0.787,3.028-0.314
					c1.475,0.841,1.655,3.368,0.533,5.928L259.698,291.625z M254.911,290.219c1.034-1.792,1.029-3.723-0.012-4.316
					c-0.518-0.295-1.198-0.199-1.878,0.193c-0.68,0.392-1.359,1.081-1.873,1.972c-1.034,1.791-1.029,3.723,0.012,4.316
					c0.518,0.295,1.197,0.199,1.875-0.192C253.715,291.8,254.394,291.111,254.911,290.219"/>
			</g>
			<g>
				<path style="fill:#FFFFFF;" d="M254.815,278.652c5.495-3.172,9.966-0.624,9.984,5.697c0.018,6.314-4.424,14.008-9.919,17.181
					c-5.495,3.172-9.966,0.624-9.984-5.69C244.878,289.519,249.32,281.825,254.815,278.652z M259.702,292.942
					c0.311-0.539,0.309-1.131-0.004-1.317l-3.124-1.773c1.122-2.56,0.942-5.087-0.533-5.928c-0.837-0.473-1.933-0.318-3.028,0.314
					c-1.094,0.632-2.186,1.74-3.015,3.175c-1.663,2.88-1.654,5.996,0.02,6.95c0.835,0.476,1.929,0.324,3.021-0.307
					c0.837-0.483,1.673-1.247,2.393-2.225l3.123,1.773c0.157,0.093,0.364,0.065,0.571-0.055
					C259.335,293.428,259.543,293.216,259.702,292.942"/>
			</g>
			<g>
				<polygon style="fill:#455A64;" points="195.503,216.775 190.422,226.427 183.971,238.682 178.574,233.796 181.735,232.953 
					183.805,234.249 190.157,223.962 193.086,219.218 				"/>
			</g>
			<g style="enable-background:new    ;">
				<g>
					<path style="fill:#FFFFFF;" d="M209.271,214.402c1.146-0.662,1.772-0.247,1.776,1.122l0.013,4.441
						c0.004,1.361-0.618,2.504-1.764,3.166c-1.146,0.662-1.779,0.243-1.782-1.118l-0.013-4.441
						C207.497,216.203,208.125,215.064,209.271,214.402z M209.895,220.718l-0.013-4.609c-0.002-0.607-0.238-0.705-0.607-0.492
						c-0.376,0.217-0.604,0.583-0.602,1.19l0.013,4.609c0.002,0.614,0.231,0.709,0.607,0.492
						C209.661,221.695,209.896,221.333,209.895,220.718"/>
				</g>
				<g>
					<path style="fill:#BA68C8;" d="M209.274,215.617c0.369-0.213,0.605-0.115,0.607,0.492l0.013,4.609
						c0.002,0.615-0.233,0.977-0.603,1.191c-0.376,0.217-0.606,0.122-0.607-0.492l-0.013-4.609
						C208.67,216.2,208.898,215.834,209.274,215.617z"/>
				</g>
				<g>
					<path style="fill:#BA68C8;" d="M268.418,204.751c1.955-1.129,3.539-0.218,3.545,2.027l0.035,12.196
						c0.006,2.246-1.567,4.979-3.522,6.108l-89.506,51.676c-1.955,1.129-3.545,0.222-3.552-2.024l-0.035-12.196
						c-0.006-2.246,1.574-4.983,3.528-6.111L268.418,204.751z M190.53,264.574l-0.026-9.328c-0.003-1.185-0.847-1.666-1.878-1.07
						l-8.436,4.871c-1.031,0.595-1.869,2.046-1.866,3.232l0.026,9.328c0.003,1.185,0.847,1.666,1.878,1.07l8.436-4.871
						C189.695,267.21,190.533,265.759,190.53,264.574 M234.091,239.116l1.178-0.68l-1.208-7.854l-1.713,0.989l-1.16,9.222
						l1.069-0.618l0.199-1.669l1.433-0.827L234.091,239.116 M243.641,233.602l-1.637-3.796l1.613-4.742l-1.165,0.673l-1.499,4.566
						l-0.019,0.011l-0.01-3.695l-1.165,0.673l0.024,8.538l1.165-0.673l-0.008-2.626l0.361-0.985l1.143,2.747L243.641,233.602
						 M221.72,246.258l-0.024-8.538l-1.191,0.687l0.01,3.658l-1.324,0.765l-0.01-3.658l-1.165,0.673l0.024,8.538l1.165-0.673
						l-0.01-3.658l1.324-0.764l0.01,3.658L221.72,246.258 M211.859,249.9l-0.012-4.441c-0.004-1.368-0.637-1.78-1.783-1.118
						c-1.146,0.662-1.768,1.798-1.764,3.166l0.013,4.441c0.004,1.361,0.63,1.783,1.776,1.122
						C211.234,252.407,211.862,251.261,211.859,249.9 M217.51,241.361l-0.004-1.222l-3.61,2.084l0.004,1.222l1.223-0.706
						l0.021,7.316l1.165-0.673l-0.021-7.316L217.51,241.361 M230.169,241.38l-0.021-7.316l1.216-0.702l-0.003-1.222l-3.604,2.081
						l0.003,1.222l1.216-0.702l0.021,7.316L230.169,241.38 M207.663,252.257l-0.012-4.316c-0.004-1.361-0.579-1.776-1.744-1.104
						l-1.846,1.066l0.024,8.538l1.846-1.066C207.095,254.702,207.667,253.625,207.663,252.257 M237.37,237.318
						c1.146-0.662,1.742-1.79,1.738-3.151c-0.003-0.98-0.316-1.503-1.294-1.928c-0.766-0.327-1.003-0.659-1.005-1.281
						c-0.002-0.607,0.214-0.966,0.583-1.179c0.369-0.213,0.586-0.104,0.588,0.503l0.001,0.359l1.101-0.636l-0.001-0.271
						c-0.004-1.368-0.592-1.805-1.725-1.151c-1.133,0.654-1.717,1.768-1.713,3.136c0.003,0.973,0.31,1.506,1.294,1.928
						c0.766,0.327,0.997,0.656,0.998,1.278c0.002,0.614-0.227,0.966-0.602,1.183c-0.369,0.213-0.605,0.13-0.607-0.485l-0.002-0.607
						l-1.101,0.636l0.001,0.527C235.63,237.538,236.224,237.979,237.37,237.318 M225.73,236.615l-0.004-1.222l-3.183,1.838
						l0.024,8.538l3.183-1.838l-0.003-1.222l-2.012,1.162l-0.007-2.502l1.598-0.923l-0.003-1.214l-1.598,0.923l-0.007-2.378
						L225.73,236.615"/>
				</g>
			</g>
			<g>
				<polygon style="fill:#FFFFFF;" points="230.352,202.326 230.355,203.548 228.439,204.655 228.446,207.223 229.949,206.355 
					229.952,207.577 228.45,208.444 228.46,211.971 227.288,212.647 227.264,204.109 				"/>
			</g>
			<g>
				<polygon style="fill:#455A64;" points="195.416,186.106 190.335,195.758 183.884,208.013 178.488,203.12 181.648,202.277 
					183.718,203.573 189.951,193.478 192.999,188.542 				"/>
			</g>
			<g>
				<path style="fill:#FFFFFF;" d="M188.453,193.482c0.61-0.352,1.154-0.328,1.498-0.004l-6.233,10.095l-2.07-1.296l-3.161,0.843
					l5.396,4.894l6.451-12.255l0.023,8.114c0.004,1.193-0.834,2.643-1.866,3.239l-8.436,4.871c-1.031,0.596-1.874,0.115-1.878-1.078
					l-0.026-9.32c-0.003-1.185,0.834-2.636,1.866-3.232L188.453,193.482z"/>
			</g>
			<g style="enable-background:new    ;">
				<g>
					<polygon style="fill:#FFFFFF;" points="218.85,178.57 218.854,179.785 216.835,180.95 216.842,183.328 218.446,182.402 
						218.45,183.623 216.845,184.549 216.852,187.052 218.871,185.886 218.874,187.101 215.691,188.939 215.667,180.408 					"/>
				</g>
				<g>
					<path style="fill:#BA68C8;" d="M268.332,174.404c1.955-1.129,3.539-0.219,3.545,2.028l0.035,12.196
						c0.006,2.246-1.568,4.979-3.522,6.108l-89.506,51.676c-1.955,1.128-3.545,0.222-3.551-2.024l-0.035-12.196
						c-0.006-2.246,1.574-4.983,3.529-6.112L268.332,174.404z M190.422,226.427l5.081-9.652l-2.417,2.443l-2.929,4.744
						c-0.327-0.448-0.93-0.53-1.617-0.133l-8.436,4.871c-1.031,0.595-1.869,2.046-1.865,3.232l0.026,9.328
						c0.003,1.185,0.846,1.666,1.878,1.07l8.436-4.871c1.031-0.595,1.869-2.046,1.866-3.231L190.422,226.427 M211.06,219.965
						l-0.013-4.441c-0.004-1.368-0.63-1.783-1.776-1.122c-1.146,0.662-1.774,1.801-1.77,3.169l0.013,4.441
						c0.004,1.361,0.636,1.78,1.782,1.118C210.442,222.469,211.063,221.325,211.06,219.965 M226.531,211.032l-0.013-4.441
						c-0.004-1.368-0.63-1.783-1.776-1.122c-1.146,0.662-1.774,1.801-1.77,3.169l0.013,4.441c0.004,1.361,0.636,1.78,1.782,1.118
						C225.913,213.536,226.535,212.393,226.531,211.032 M220.686,214.407l-0.013-4.441c-0.004-1.368-0.636-1.78-1.782-1.118
						c-1.146,0.662-1.768,1.797-1.764,3.165l0.013,4.441c0.004,1.361,0.63,1.784,1.776,1.122
						C220.062,216.914,220.69,215.768,220.686,214.407 M216.711,211.426l-0.004-1.222l-3.61,2.084l0.003,1.222l1.223-0.706
						l0.021,7.316l1.165-0.673l-0.021-7.316L216.711,211.426 M206.847,218.777l-0.002-0.827c-0.004-1.368-0.598-1.802-1.744-1.14
						c-1.146,0.662-1.742,1.783-1.739,3.151l0.013,4.441c0.004,1.361,0.605,1.798,1.751,1.136c1.146-0.662,1.736-1.786,1.732-3.147
						l-0.008-2.707l-1.636,0.945l0.003,1.214l0.535-0.309l0.005,1.573c0.002,0.615-0.233,0.97-0.603,1.183
						c-0.376,0.217-0.605,0.13-0.607-0.485l-0.013-4.609c-0.002-0.607,0.227-0.974,0.603-1.19c0.369-0.213,0.605-0.115,0.607,0.492
						l0.003,0.915L206.847,218.777 M239.974,199.651l-0.002-0.827c-0.004-1.368-0.598-1.802-1.744-1.14
						c-1.146,0.662-1.736,1.779-1.732,3.147l0.013,4.441c0.004,1.361,0.598,1.802,1.744,1.14c1.146-0.662,1.736-1.786,1.732-3.147
						l-0.003-1.134l-1.101,0.636l0.003,1.214c0.002,0.615-0.233,0.97-0.603,1.183c-0.369,0.213-0.605,0.13-0.607-0.485l-0.013-4.609
						c-0.002-0.607,0.233-0.977,0.602-1.19c0.369-0.213,0.605-0.115,0.607,0.492l0.003,0.915L239.974,199.651 M243.866,195.748
						l-0.003-1.222l-3.184,1.838l0.024,8.538l3.183-1.838l-0.003-1.222l-2.018,1.165l-0.007-2.502l1.605-0.926l-0.003-1.214
						l-1.605,0.926l-0.007-2.378L243.866,195.748 M230.355,203.548l-0.003-1.222l-3.088,1.783l0.024,8.538l1.171-0.676l-0.01-3.526
						l1.502-0.868l-0.003-1.222l-1.503,0.868l-0.007-2.568L230.355,203.548 M234.01,201.438l-0.004-1.222l-3.088,1.783l0.024,8.538
						l1.165-0.673l-0.01-3.526l1.509-0.871l-0.003-1.222l-1.509,0.871l-0.007-2.568L234.01,201.438 M235.756,207.758l-0.024-8.538
						l-1.165,0.673l0.024,8.538L235.756,207.758"/>
				</g>
			</g>
			<g>
				<polygon style="fill:#FFFFFF;" points="212.894,151.613 212.09,160.621 210.543,161.514 210.116,157.21 209.696,162.003 
					208.092,162.93 207.24,154.877 208.373,154.223 209.01,160.597 209.564,153.535 210.691,152.885 211.283,159.328 
					211.875,152.201 				"/>
			</g>
			<g>
				<path style="fill:#FFFFFF;" d="M215.153,150.206c1.146-0.662,1.779-0.243,1.783,1.125l0.013,4.434
					c0.004,1.368-0.624,2.515-1.77,3.176c-1.146,0.662-1.772,0.239-1.776-1.129l-0.013-4.433
					C213.386,152.01,214.007,150.867,215.153,150.206z M215.777,156.529l-0.013-4.609c-0.002-0.607-0.232-0.709-0.607-0.492
					c-0.369,0.213-0.604,0.583-0.603,1.191l0.013,4.609c0.002,0.607,0.238,0.706,0.607,0.492
					C215.551,157.502,215.779,157.136,215.777,156.529"/>
			</g>
			<g>
				<path style="fill:#FFFFFF;" d="M221.205,154.326c0.001,0.41,0.015,0.71,0.13,0.958l-1.19,0.687
					c-0.064-0.183-0.103-0.293-0.105-0.988l-0.004-1.339c-0.002-0.798-0.239-0.954-0.767-0.649l-0.408,0.235l0.01,3.475
					l-1.165,0.673l-0.024-8.531l1.764-1.019c1.21-0.698,1.727-0.352,1.731,0.965l0.002,0.673c0.002,0.878-0.238,1.574-0.759,2.16
					l0,0.022c0.586-0.06,0.779,0.466,0.782,1.359L221.205,154.326z M220.014,150.441l-0.003-0.841
					c-0.002-0.607-0.18-0.775-0.595-0.536l-0.567,0.327l0.007,2.626l0.458-0.264C219.749,151.502,220.016,151.128,220.014,150.441"
					/>
			</g>
			<g>
				<polygon style="fill:#FFFFFF;" points="225.812,144.154 224.199,148.896 225.836,152.685 224.633,153.38 223.49,150.632 
					223.129,151.624 223.137,154.243 221.972,154.916 221.947,146.385 223.113,145.713 223.123,149.407 223.149,149.393 
					224.641,144.831 				"/>
			</g>
			<g>
				<polygon style="fill:#FFFFFF;" points="239.679,136.148 239.683,137.363 238.46,138.068 238.481,145.384 237.316,146.057 
					237.295,138.741 236.073,139.447 236.069,138.232 				"/>
			</g>
			<g>
				<polygon style="fill:#FFFFFF;" points="214.82,180.897 214.844,189.428 213.736,190.067 213.719,183.951 212.934,190.531 
					211.826,191.17 210.962,185.623 210.96,191.67 209.942,192.258 209.917,183.728 211.541,182.79 212.405,188.359 
					213.196,181.835 				"/>
			</g>
			<g style="enable-background:new    ;">
				<g>
					<path style="fill:#BA68C8;" d="M268.246,144.057c1.955-1.129,3.539-0.219,3.545,2.027l0.035,12.196
						c0.006,2.246-1.567,4.972-3.522,6.101l-89.506,51.676c-1.955,1.129-3.545,0.23-3.551-2.016l-0.035-12.196
						c-0.007-2.246,1.574-4.983,3.529-6.111l16.675-9.627l-2.417,2.436l-3.048,4.936c-0.344-0.324-0.888-0.348-1.498,0.004
						l-8.436,4.871c-1.031,0.595-1.869,2.046-1.866,3.232l0.026,9.321c0.003,1.193,0.846,1.673,1.878,1.077l8.436-4.871
						c1.031-0.596,1.869-2.047,1.866-3.239l-0.023-8.114l5.081-9.652L268.246,144.057z M214.844,189.428l-0.024-8.53l-1.624,0.937
						l-0.772,6.514l-0.883-5.558l-1.624,0.938l0.024,8.53l1.019-0.588l-0.017-6.036l0.883,5.536l1.108-0.639l0.766-6.568
						l0.036,6.105L214.844,189.428 M232.989,178.951l-0.024-8.53l-1.044,0.603l0.014,5.107l-0.019,0.011l-1.193-4.427l-1.464,0.846
						l0.024,8.53l1.051-0.606l-0.018-6.182l0.019-0.011l1.45,5.355L232.989,178.951 M226.748,175.227l-0.004-1.214l-3.61,2.084
						l0.004,1.214l1.222-0.706l0.021,7.316l1.165-0.673l-0.021-7.316L226.748,175.227 M237.195,170.859l-0.002-0.827
						c-0.004-1.368-0.598-1.809-1.744-1.147c-1.146,0.662-1.742,1.79-1.738,3.158l0.013,4.434c0.004,1.368,0.605,1.805,1.751,1.144
						c1.146-0.662,1.736-1.786,1.732-3.154l-0.008-2.707l-1.636,0.945l0.004,1.222l0.535-0.309l0.004,1.573
						c0.002,0.607-0.233,0.963-0.602,1.176c-0.376,0.217-0.605,0.13-0.607-0.477l-0.013-4.609c-0.002-0.607,0.227-0.974,0.603-1.191
						c0.369-0.213,0.606-0.115,0.607,0.492l0.003,0.914L237.195,170.859 M222.756,177.531l-0.003-1.214l-3.183,1.838l0.024,8.531
						l3.184-1.838l-0.003-1.214l-2.012,1.162l-0.007-2.502l1.598-0.923l-0.003-1.222l-1.598,0.923l-0.007-2.377L222.756,177.531
						 M218.853,179.785l-0.003-1.214l-3.184,1.838l0.024,8.53l3.183-1.838l-0.003-1.214l-2.018,1.165l-0.007-2.502l1.605-0.926
						l-0.004-1.222l-1.604,0.926l-0.007-2.378L218.853,179.785 M228.443,181.576l-0.024-8.531l-1.165,0.673l0.024,8.53
						L228.443,181.576"/>
				</g>
				<g>
					<polygon style="fill:#455A64;" points="195.329,155.437 195.085,155.9 190.248,165.086 183.797,177.337 178.401,172.451 
						181.561,171.608 183.631,172.904 189.732,163.024 192.912,157.873 194.58,156.192 					"/>
				</g>
				<g>
					<path style="fill:#FFFFFF;" d="M188.367,163.135c0.536-0.31,1.021-0.33,1.364-0.111l-6.1,9.88l-2.07-1.296l-3.161,0.843
						l5.396,4.887l6.451-12.251l0.024,8.439c0.003,1.193-0.834,2.636-1.866,3.232l-8.436,4.87c-1.032,0.596-1.875,0.122-1.878-1.07
						l-0.027-9.321c-0.003-1.193,0.834-2.636,1.866-3.232L188.367,163.135z"/>
				</g>
			</g>
			<g>
				<path style="fill:#FFFFFF;" d="M235.617,138.493l0.018,6.497c0.004,1.368-0.592,2.489-1.738,3.151
					c-1.146,0.662-1.74,0.228-1.744-1.14l-0.018-6.497l1.165-0.673l0.019,6.584c0.002,0.607,0.238,0.691,0.607,0.478
					c0.376-0.217,0.604-0.569,0.603-1.176l-0.019-6.585L235.617,138.493z"/>
			</g>
			<g>
				<path style="fill:#BA68C8;" d="M268.16,113.71c1.955-1.129,3.539-0.218,3.545,2.02l0.035,12.203
					c0.006,2.246-1.568,4.972-3.522,6.101l-89.506,51.676c-1.955,1.128-3.545,0.229-3.551-2.017l-0.035-12.203
					c-0.006-2.239,1.574-4.976,3.529-6.104l15.925-9.194l-1.668,1.681l-3.181,5.152c-0.343-0.219-0.828-0.199-1.364,0.11
					l-8.436,4.871c-1.031,0.595-1.869,2.039-1.866,3.232l0.026,9.321c0.003,1.193,0.847,1.666,1.878,1.07l8.436-4.871
					c1.031-0.595,1.869-2.039,1.866-3.232l-0.024-8.44l4.837-9.186L268.16,113.71z M212.09,160.621l0.803-9.008l-1.019,0.588
					l-0.573,7.116l-0.611-6.433l-1.127,0.651l-0.535,7.051l-0.656-6.363l-1.133,0.654l0.852,8.053l1.604-0.926l0.401-4.782
					l0.446,4.293L212.09,160.621 M225.836,152.685l-1.637-3.789l1.613-4.742l-1.172,0.677l-1.492,4.562l-0.025,0.015l-0.01-3.695
					l-1.165,0.673l0.024,8.531l1.165-0.673l-0.007-2.619l0.361-0.993l1.143,2.748L225.836,152.685 M231.452,147.391l-0.013-4.433
					c-0.004-1.368-0.63-1.791-1.776-1.129c-1.146,0.662-1.774,1.809-1.77,3.177l0.013,4.433c0.004,1.368,0.636,1.787,1.782,1.125
					C230.834,149.902,231.456,148.759,231.452,147.391 M216.949,155.764l-0.013-4.434c-0.004-1.368-0.636-1.787-1.783-1.125
					c-1.146,0.662-1.768,1.805-1.764,3.173l0.013,4.433c0.004,1.368,0.63,1.79,1.776,1.129
					C216.324,158.279,216.952,157.133,216.949,155.764 M220.144,155.971l1.19-0.687c-0.115-0.248-0.129-0.549-0.13-0.958
					l-0.004-1.317c-0.003-0.893-0.195-1.419-0.782-1.359l0-0.022c0.521-0.587,0.762-1.282,0.759-2.16l-0.002-0.673
					c-0.004-1.317-0.521-1.663-1.731-0.965l-1.764,1.019l0.024,8.531l1.165-0.673l-0.01-3.475l0.408-0.235
					c0.528-0.305,0.765-0.149,0.767,0.649l0.004,1.339C220.041,155.679,220.08,155.788,220.144,155.971 M239.683,137.363
					l-0.003-1.215l-3.61,2.084l0.003,1.215l1.222-0.706l0.021,7.316l1.165-0.673l-0.021-7.316L239.683,137.363 M235.635,144.99
					l-0.018-6.497l-1.108,0.64l0.019,6.585c0.002,0.607-0.227,0.959-0.603,1.176c-0.369,0.213-0.605,0.13-0.607-0.478l-0.019-6.585
					l-1.165,0.673l0.019,6.497c0.004,1.368,0.598,1.802,1.744,1.14C235.043,147.479,235.639,146.358,235.635,144.99"/>
			</g>
			<g>
				<polygon style="fill:#BA68C8;" points="207.879,123.701 207.911,135.078 206.313,136 204.379,128.865 204.354,128.88 
					204.377,137.118 202.977,137.926 202.944,126.55 204.893,125.425 206.484,131.329 206.51,131.314 206.491,124.503 				"/>
			</g>
			<g>
				<path style="fill:#BA68C8;" d="M223.852,296.272c0.777-0.449,1.415-0.092,1.418,0.808l0.024,8.538l7.43-4.29
					c0.777-0.448,1.415-0.092,1.418,0.808c0.003,0.9-0.632,1.992-1.409,2.44l-7.43,4.29l0.024,8.538
					c0.003,0.893-0.632,1.992-1.409,2.44c-0.783,0.452-1.416,0.084-1.418-0.808l-0.024-8.538l-7.43,4.29
					c-0.783,0.452-1.416,0.092-1.418-0.808c-0.003-0.9,0.626-1.988,1.409-2.44l7.43-4.29l-0.024-8.538
					C222.441,297.813,223.069,296.724,223.852,296.272z"/>
			</g>
			<g>
				<path style="fill:#FFFFFF;" d="M223.84,292.088c7.628-4.404,13.836-0.866,13.861,7.906c0.025,8.765-6.144,19.449-13.771,23.853
					c-7.634,4.407-13.836,0.865-13.861-7.899C210.044,307.175,216.206,296.495,223.84,292.088z M232.733,304.577
					c0.777-0.449,1.411-1.54,1.409-2.44c-0.003-0.9-0.641-1.256-1.418-0.808l-7.43,4.29l-0.024-8.538
					c-0.003-0.9-0.641-1.257-1.418-0.808c-0.783,0.452-1.411,1.54-1.409,2.44l0.024,8.538l-7.43,4.29
					c-0.783,0.452-1.412,1.54-1.409,2.44c0.003,0.9,0.635,1.26,1.418,0.808l7.43-4.29l0.024,8.538
					c0.002,0.893,0.635,1.26,1.418,0.808c0.777-0.449,1.411-1.548,1.409-2.44l-0.024-8.538L232.733,304.577"/>
			</g>
			<g>
				<polygon style="fill:#BA68C8;" points="192.896,318.454 194.863,321.869 199.227,320.082 196.079,325.439 196.838,330.006 
					192.928,329.903 189.032,334.513 189.762,329.086 186.595,327.375 190.96,324.122 				"/>
			</g>
			<g>
				<path style="fill:#FFFFFF;" d="M192.884,314.408c5.501-3.176,9.966-0.624,9.984,5.697c0.018,6.314-4.418,14.004-9.919,17.181
					c-5.495,3.172-9.966,0.624-9.984-5.69C182.947,325.275,187.389,317.58,192.884,314.408z M196.838,330.006l-0.759-4.567
					l3.148-5.357l-4.363,1.786l-1.967-3.415l-1.935,5.668l-4.366,3.253l3.168,1.711l-0.731,5.427l3.896-4.609L196.838,330.006"/>
			</g>
		</g>
	</g>
</g>
<g id="Character">
	<g>
		<g>
			<g>
				<g>
					<path style="fill:#263238;" d="M334.753,404.168c-0.788,2.483-3.511,3.904-6.108,4.11c-2.597,0.206-5.162-0.524-7.726-0.988
						c-5.739-1.04-11.273-0.009-16.997-0.144c-1.878-0.044-3.773-0.13-5.59-0.607c-1.817-0.477-3.571-1.377-4.779-2.816
						c-0.714-0.85-1.202-1.905-1.376-2.996c-0.281,1.638,0.297,3.39,1.376,4.674c1.208,1.439,2.962,2.339,4.779,2.816
						c1.817,0.477,3.712,0.563,5.59,0.608c5.723,0.135,11.257-0.896,16.997,0.144c2.563,0.464,5.129,1.194,7.726,0.988
						c2.597-0.206,5.32-1.627,6.108-4.11c0.271-0.854,0.289-1.748,0.199-2.645C334.913,403.528,334.853,403.851,334.753,404.168z"/>
					<path style="fill:#455A64;" d="M334.605,399.412c-0.352-1.738-0.704-3.477-1.055-5.215c-0.186-0.919-0.381-1.862-0.884-2.654
						c-0.502-0.792-1.387-1.413-2.321-1.327c-3.143-0.419-7.562-1.556-10.174,0.242c-4.089,2.814-9.096,4.268-14.056,4.082
						c-2.596-0.098-5.196-0.63-7.775-0.313c-2.579,0.316-5.263,1.753-6.029,4.235c-0.227,0.735-0.254,1.508-0.133,2.264
						c0.173,1.091,0.662,2.146,1.376,2.996c1.208,1.439,2.962,2.339,4.779,2.816c1.817,0.477,3.712,0.563,5.59,0.607
						c5.723,0.135,11.257-0.896,16.997,0.144c2.563,0.465,5.129,1.194,7.726,0.988c2.597-0.206,5.32-1.627,6.108-4.11
						c0.101-0.317,0.16-0.64,0.199-0.967C335.101,401.956,334.857,400.659,334.605,399.412z"/>
				</g>
				<path style="fill:#FFA8A7;" d="M319.409,384.997l-0.224,6.793c-0.048,1.444,1.053,2.682,2.495,2.778
					c2.333,0.154,4.605,0.145,6.847-0.066c1.907-0.179,3.398-1.726,3.501-3.639l0.27-5.016L319.409,384.997z"/>
			</g>
			<g>
				<g>
					<path style="fill:#263238;" d="M363.762,381.383c-0.071,1.009-0.312,2.004-0.909,2.806c-0.75,1.007-1.972,1.573-3.206,1.805
						c-2.981,0.559-6.233-0.78-7.957-3.275c-0.854-1.236-1.34-2.692-2.149-3.959c-1.122-1.758-2.806-3.069-4.461-4.338
						c-1.655-1.269-3.347-2.566-4.495-4.307c-1.11-1.685-1.62-3.891-0.859-5.747c-0.159,0.227-0.303,0.466-0.421,0.723
						c-0.895,1.951-0.365,4.324,0.806,6.119c1.171,1.795,2.898,3.132,4.587,4.44c1.689,1.308,3.407,2.66,4.552,4.472
						c0.825,1.306,1.321,2.806,2.193,4.081c1.759,2.572,5.077,3.952,8.119,3.377c1.259-0.238,2.506-0.822,3.272-1.86
						c0.807-1.095,0.978-2.538,0.95-3.903C363.781,381.671,363.769,381.527,363.762,381.383z"/>
					<path style="fill:#455A64;" d="M361.702,372.856c-2.065-3.62-6.324-6.253-9.609-8.816c-1.864-1.455-4.01-2.696-6.367-2.892
						c-2.357-0.195-4.937,0.885-5.931,3.031c-0.029,0.061-0.043,0.127-0.069,0.189c-0.761,1.855-0.251,4.062,0.859,5.747
						c1.148,1.741,2.84,3.038,4.495,4.307c1.655,1.269,3.339,2.58,4.461,4.338c0.808,1.267,1.294,2.722,2.149,3.959
						c1.724,2.495,4.976,3.834,7.957,3.275c1.234-0.231,2.456-0.798,3.206-1.805c0.597-0.802,0.838-1.797,0.909-2.806
						c0.023-0.327,0.029-0.656,0.022-0.98C363.731,377.767,363.008,375.146,361.702,372.856z"/>
				</g>
				<path style="fill:#FFA8A7;" d="M352.747,369.718v6.174c5.633,2.354,9.608-0.424,9.608-0.424l0.579-5.556L352.747,369.718z"/>
			</g>
			<path style="fill:#37474F;" d="M364.554,257.706c1.852,5.556-0.424,31.948-1.505,57.26c4.013,9.569,2.932,36.733,0.617,56.025
				c0,0-4.013,2.469-11.267,0l-9.106-53.247l-1.264-30.096c0,0-2.286,26.701-4.91,43.832c2.469,13.119,1.852,15.588-4.244,55.941
				c0,0-6.251,3.634-13.659,0c-3.448-56.694-2.18-108.359-1.527-126.937L364.554,257.706z"/>
			<g>
				<path style="fill:#FFA8A7;" d="M366.522,224.442l2.662,5.614l-6.366,7.003l0.463,16.727l20.527-17.823
					c1.891-1.642,2.45-4.347,1.364-6.604l-6.264-13.019L366.522,224.442z"/>
				<path style="fill:#F28F8F;" d="M372.849,235.062c0,0-2.874-2.383-3.665-5.006l-1.586,1.745
					C368.43,233.078,370.101,234.459,372.849,235.062z"/>
			</g>
			<path style="fill:#BA68C8;" d="M366.01,225.792c8.151-0.714,13.707-9.164,13.707-9.164
				c-7.293-14.932-13.659-31.543-26.392-27.579L366.01,225.792z"/>
			<path style="fill:#BA68C8;" d="M316.593,215.108v46.919c27.627,11.575,45.53,1.119,47.961-4.322
				c-1.273-19.1,3.241-41.44,2.894-50.932c-0.347-9.492-1.511-20.185-16.228-18.041l-15.651,1.527l-7.94,1.929L316.593,215.108z"/>
			<path style="opacity:0.4;fill:#FFFFFF;" d="M316.593,215.108v46.919c27.627,11.575,45.53,1.119,47.961-4.322
				c-1.273-19.1,3.241-41.44,2.894-50.932c-0.347-9.492-1.511-20.185-16.228-18.041l-15.651,1.527l-7.94,1.929L316.593,215.108z"/>
			<g>
				<g>
					<path style="fill:#FFA8A7;" d="M269.107,202.921c0.222,0.612,0.502,1.201,0.836,1.76l17.434,29.212
						c2.667,4.469,8.743,5.408,12.635,1.952l11.101-9.857l-11.267-11.961l-5.633,5.865l-16.248-20.737l-2.485-10.869
						c-0.343-1.499-1.316-2.777-2.671-3.506l-6.898-3.712c-0.53-0.286-1.185-0.188-1.609,0.241l0,0
						c-0.606,0.613-0.496,1.628,0.228,2.096l5.024,3.251l-6.535,3.878c-0.765,0.454-1.226,1.286-1.204,2.176l0.076,3.15
						c0.033,1.358,1.076,2.477,2.428,2.604l1.076,0.101l0.251,0.656C266.274,200.857,267.515,202.185,269.107,202.921
						L269.107,202.921z"/>
					<path style="fill:#F28F8F;" d="M290.76,227.088c0,0,0.926-4.572,3.453-7.196l-1.554-2.06
						C291.49,219.995,289.835,224.214,290.76,227.088z"/>
				</g>
				<path style="fill:#BA68C8;" d="M298.458,214.066l15.853-15.594c3.53-3.473,8.115-5.671,13.033-6.25l0.284-0.034
					c6.714,14.701-2.161,21.878-2.161,21.878l-14.739,13.543C301.352,222.632,298.458,214.066,298.458,214.066z"/>
			</g>
			<g>
				<path style="fill:#263238;" d="M326.275,153.746c-3.354-1.262-6.634-6.085-3.277-8.207c0.935-0.694,3.666,0.116,5.865,0
					c-1.929-1.736-2.392-3.82-1.428-4.476c0.965-0.656,3.55,1.813,8.238,1.35c4.688-0.463,20.836-5.672,22.861,6.135
					c2.257-3.01,4.746-0.81,4.746-0.81l-3.357,2.373c4.977,7.003,3.357,15.106-8.704,31.119c-5.649,6.096-11.784,1.698-11.784,1.698
					l-4.978-12.27l-4.862-5.904L326.275,153.746z"/>
				<polygon style="fill:#F28F8F;" points="325.159,163.558 321.917,169.192 325.467,170.503 				"/>
				<path style="fill:#FFA8A7;" d="M326.275,153.746c-2.147,7.766-2.475,16.033-0.931,23.943c0.263,1.347,0.606,2.739,1.489,3.789
					c0.998,1.187,2.571,1.771,4.117,1.895c1.546,0.124,3.093-0.161,4.618-0.445v7.331c5.564,1.312,11.29,1.831,15.651-1.527v-7.502
					c-3.127,0.919-6.531,1.3-9.715,0.607c-3.844-2.073-4.616-9.096-4.076-10.948c0.567,0.934,1.94,1.299,3.006,1.056
					c1.065-0.243,1.948-1.036,2.495-1.982c0.547-0.946,0.793-2.037,0.931-3.12c0.169-1.32,0.164-2.755-0.57-3.866
					c-0.901-1.365-2.773-1.888-4.353-1.467c-1.58,0.42-2.861,1.639-3.664,3.064c-0.254,0.45-0.466,0.92-0.645,1.403
					c-0.326,0.878-1.601,0.717-1.687-0.215c-0.193-2.095,0.177-4.244,1.103-6.134c-1.237,0.018-2.401-0.935-3.141-1.925
					c-0.741-0.99-0.973-2.341-0.607-3.522C328.438,154.394,326.275,153.746,326.275,153.746z"/>
			</g>
			<path style="opacity:0.3;" d="M342.799,305.975l-1.031-24.545c6.344,0,12.23-4.742,16.707-9.237
				c-4.301,7.66-12.635,11.056-12.635,11.056L342.799,305.975z"/>
		</g>
		<path style="fill:#BA68C8;" d="M342.944,262.971c8.222-28.846,15.736-70.72,9.48-74.388l0,0c1.481-1.221,3.578-1.354,5.202-0.331
			l0.322,0.203c7.952,9.164-9.758,76.568-9.758,76.568L342.944,262.971z"/>
		<path style="opacity:0.3;" d="M342.944,262.971c8.222-28.846,15.736-70.72,9.48-74.388l0,0c1.481-1.221,3.578-1.354,5.202-0.331
			l0.322,0.203c7.952,9.164-9.758,76.568-9.758,76.568L342.944,262.971z"/>
		<g>
			<path style="fill:#BA68C8;" d="M349.036,264.567c0.784,17.584-0.784,32.48-9.296,36.064c-8.512,3.584-21.056-0.672-25.76-2.016
				c-4.704-1.344-13.552-5.936-15.68-9.072c-0.784-8.624,2.128-17.136,4.144-19.936C304.46,266.807,349.036,264.567,349.036,264.567
				z"/>
			<path style="opacity:0.2;" d="M349.036,264.567c0.784,17.584-0.784,32.48-9.296,36.064c-8.512,3.584-21.056-0.672-25.76-2.016
				c-4.704-1.344-13.552-5.936-15.68-9.072c-0.784-8.624,2.128-17.136,4.144-19.936C304.46,266.807,349.036,264.567,349.036,264.567
				z"/>
			<path style="fill:#BA68C8;" d="M316.549,253.709c10.078,1.913,22.831,5.766,32.487,10.858c-1.936,4.369-4.645,8.824-6.582,13.193
				c-0.693,1.564-1.424,3.181-2.713,4.306c-2.219,1.938-5.491,1.946-8.422,1.652c-8.202-0.825-16.243-3.216-23.562-7.007
				c-2.503-1.297-5.116-2.989-5.953-5.681c-0.693-2.227,0.002-4.638,0.879-6.799c0.571-1.408,1.224-2.941,1.953-4.473
				C306.774,255.261,311.658,252.78,316.549,253.709z"/>
		</g>
	</g>
</g>
</svg>
