<svg id="Layer_1" data-name="Layer 1" xmlns="http://www.w3.org/2000/svg" viewBox="0 0 128 128"><defs><style>.cls-1{fill:#fff;}.cls-2{fill:#01652f;}</style></defs><circle class="cls-1" cx="64" cy="64" r="64"/><path class="cls-2" d="M113,68.42l-6.17-37.57a1.61,1.61,0,0,0-.87-1.18,1.64,1.64,0,0,0-1.48,0L89.18,37.87a1.6,1.6,0,0,0-.74,2l1.1,2.74a12.32,12.32,0,0,1-9.46.4A20.35,20.35,0,0,0,64,43.92,20.31,20.31,0,0,0,47.92,43a12.37,12.37,0,0,1-9.46-.41l1.1-2.74a1.6,1.6,0,0,0-.74-2L23.54,29.69a1.64,1.64,0,0,0-1.48,0,1.61,1.61,0,0,0-.87,1.18L15,68.42a1.61,1.61,0,0,0,1.05,1.78l8.41,3a1.76,1.76,0,0,0,.55.09,1.6,1.6,0,0,0,1.49-1l1.14-2.82,4.92,3.9a6.07,6.07,0,0,0,6.09,5.77h.27A6.09,6.09,0,0,0,45,85.53h.27A6.09,6.09,0,0,0,51.4,91.9a6.24,6.24,0,0,0,1.36-.16,6.1,6.1,0,0,0,9.63,4.32l.66.65a6.11,6.11,0,0,0,10.27-2.94,6.11,6.11,0,0,0,8.76-4.91,5.86,5.86,0,0,0,1.26.14,6.09,6.09,0,0,0,6.09-6.38h.27a6.11,6.11,0,0,0,5.51-8.76l5.68-3,.59,1.46a1.6,1.6,0,0,0,1.49,1,1.76,1.76,0,0,0,.55-.09l8.41-3A1.61,1.61,0,0,0,113,68.42ZM24.11,69.67l-5.69-2L24,33.6,36,40ZM36.63,75.1a2.89,2.89,0,0,1,0-4.09l2.1-2.1a2.85,2.85,0,0,1,2-.85,2.9,2.9,0,0,1,2,4.94l-2.11,2.1A2.88,2.88,0,0,1,36.63,75.1ZM43,81.46a2.9,2.9,0,0,1,0-4.08h0l2.11-2.11h0l2.62-2.62a2.87,2.87,0,0,1,2-.84,2.9,2.9,0,0,1,2.89,2.89,2.89,2.89,0,0,1-.84,2h0l-4.72,4.72A3,3,0,0,1,43,81.46Zm6.37,6.37a2.89,2.89,0,0,1,0-4.09L54.08,79h0a2.92,2.92,0,0,1,2.05-.84,2.89,2.89,0,0,1,2,4.93l-2,2-1.66,1.66h0l-1,1A2.89,2.89,0,0,1,49.36,87.83Zm7.43,5.31a2.89,2.89,0,0,1,0-4.08l1.67-1.67a2.89,2.89,0,0,1,4.09,4.08l-1.67,1.67A2.88,2.88,0,0,1,56.79,93.14Zm12.62,1.29a2.89,2.89,0,0,1-4.09,0l-.59-.59.09-.09a6.09,6.09,0,0,0,1.3-6.69l3.29,3.28a2.88,2.88,0,0,1,.85,2A2.84,2.84,0,0,1,69.41,94.43ZM91.75,78.57a3,3,0,0,1-4.09,0L75.21,66.11a1.63,1.63,0,0,0-2.28,0,1.61,1.61,0,0,0,0,2.28l1.15,1.15h0l5.65,5.65,5.65,5.64h0a2.89,2.89,0,1,1-4.09,4.08l-1-1h0l-8-8a1.51,1.51,0,0,0-.6-.37A1.61,1.61,0,0,0,70,78.2l4.25,4.25L78,86.24A2.89,2.89,0,1,1,74,90.32l-2.26-2.26-3.53-3.53a1.63,1.63,0,0,0-2.28,0,1.66,1.66,0,0,0-.46,1.3,5.87,5.87,0,0,0-.6-.72,6.16,6.16,0,0,0-3.07-1.66A6.09,6.09,0,0,0,55.86,75c0-.09,0-.18,0-.27a6.11,6.11,0,0,0-6.11-6.11,6.1,6.1,0,0,0-3.08.83,6,6,0,0,0-1.58-2.79,6.13,6.13,0,0,0-8.65,0l-2.1,2.1a5.92,5.92,0,0,0-.93,1.21l-4.51-3.57,8.35-20.75A15.63,15.63,0,0,0,49,46.06a17,17,0,0,1,11.34-.16L54.84,49A6.91,6.91,0,0,0,60.55,61.5l10.56-3.87A4.67,4.67,0,0,1,76,58.71L91.75,74.48A2.91,2.91,0,0,1,91.75,78.57Zm1.4-7.25L78.26,56.43A7.88,7.88,0,0,0,70,54.61L59.45,58.47a3.67,3.67,0,0,1-4.3-1.37,3.67,3.67,0,0,1,1.25-5.31l8.38-4.64A17.08,17.08,0,0,1,79,46.06a15.58,15.58,0,0,0,11.77-.44l8.94,22.22Zm10.74-1.65L92,40l12-6.43,5.58,34Z"/></svg>