<svg id="Layer_1" data-name="Layer 1" xmlns="http://www.w3.org/2000/svg" viewBox="0 0 128 128"><defs><style>.cls-1{fill:#fff;}.cls-2{fill:#01652f;}</style></defs><circle class="cls-1" cx="64" cy="64" r="64"/><path class="cls-2" d="M46.45,84.55A1.45,1.45,0,0,0,47.9,83.1V81A1.45,1.45,0,0,0,45,81V83.1A1.45,1.45,0,0,0,46.45,84.55Z"/><path class="cls-2" d="M100.23,95.36H98.34V62.91a6.7,6.7,0,0,0,5.52-6.6V51.7a.78.78,0,0,0,0-.14h0l0-.13,0,0a.3.3,0,0,0,0-.1v0L98.57,41v-.89H29.43V41L24.25,51.28v0a.3.3,0,0,0,0,.1l0,0,0,.13h0a.78.78,0,0,0,0,.14v4.61a6.7,6.7,0,0,0,5.52,6.6V95.36H27.77a3.7,3.7,0,0,0-3.7,3.69v3.7A1.89,1.89,0,0,0,26,104.64H102a1.89,1.89,0,0,0,1.89-1.89v-3.7A3.7,3.7,0,0,0,100.23,95.36Zm1.29-39a4.36,4.36,0,1,1-8.71,0V53h8.71ZM96.69,42.45l4.11,8.19H92.46l-2.94-8.19Zm-9.65,0L90,50.64H81.53l-1.76-8.19ZM90.47,53v3.33a4.36,4.36,0,1,1-8.72,0V53ZM77.37,42.45l1.77,8.19H70.61L70,42.45Zm2,10.53v3.33a4.36,4.36,0,1,1-8.71,0V53ZM60.32,42.45h7.36l.59,8.19H59.73ZM59.64,53h8.72v3.33a4.36,4.36,0,0,1-8.72,0Zm-9-10.53H58l-.58,8.19H48.86ZM48.59,53H57.3v3.33a4.36,4.36,0,1,1-8.71,0Zm4.35,10a6.71,6.71,0,0,0,5.53-2.92,6.7,6.7,0,0,0,11.06,0,6.69,6.69,0,0,0,11,0,6.7,6.7,0,0,0,11.06,0A6.73,6.73,0,0,0,96,62.91V95.36H52v-26a2.17,2.17,0,0,0-2.17-2.18H36.26a2.18,2.18,0,0,0-2.17,2.18v26H32V62.91a6.73,6.73,0,0,0,4.36-2.82,6.7,6.7,0,0,0,11.06,0A6.68,6.68,0,0,0,52.94,63Zm-3.32,6.52V95.36H36.43V69.53ZM37.53,56.31V53h8.72v3.33a4.36,4.36,0,0,1-8.72,0Zm10.7-13.86-1.76,8.19H38L41,42.45Zm-16.92,0h7.17l-2.94,8.19H27.2ZM26.48,56.31V53h8.71v3.33a4.36,4.36,0,1,1-8.71,0Zm75.11,46H26.41V99.05a1.37,1.37,0,0,1,1.36-1.36h72.46a1.37,1.37,0,0,1,1.36,1.36Z"/><path class="cls-2" d="M56.58,90.56H90.63a2.46,2.46,0,0,0,2.46-2.46V69.36a2.46,2.46,0,0,0-2.46-2.45H76.33a1.45,1.45,0,0,0,0,2.9H90.19V87.66H57V69.81H70.82a1.45,1.45,0,0,0,0-2.9H56.58a2.45,2.45,0,0,0-2.45,2.45V88.1A2.46,2.46,0,0,0,56.58,90.56Z"/><path class="cls-2" d="M63.34,21.36c-4.11,0-6.43,3.68-6.43,9.14a15,15,0,0,0,.42,3.68,9.66,9.66,0,0,0,.9,2.34,5.38,5.38,0,0,0,4.92,3,5.55,5.55,0,0,0,5.1-3,9.5,9.5,0,0,0,.89-2.34,16.16,16.16,0,0,0,.42-3.85C69.56,25.14,67.59,21.36,63.34,21.36Zm2.5,12.82a4.25,4.25,0,0,1-1.28,2.34,2,2,0,0,1-1.3.46,2.06,2.06,0,0,1-1.3-.46,4.28,4.28,0,0,1-1.31-2.34,14.2,14.2,0,0,1-.39-3.68c0-4.41,1.21-6.6,3-6.6,2,0,3,2.4,3,6.48A15.63,15.63,0,0,1,65.84,34.18Z"/><path class="cls-2" d="M79.15,21.36c-4.11,0-6.43,3.68-6.43,9.14a15,15,0,0,0,.42,3.68,9.66,9.66,0,0,0,.9,2.34,5.38,5.38,0,0,0,4.92,3,5.54,5.54,0,0,0,5.1-3A9.91,9.91,0,0,0,85,34.18a16.16,16.16,0,0,0,.42-3.85C85.37,25.14,83.4,21.36,79.15,21.36Zm2.5,12.82a4.12,4.12,0,0,1-1.28,2.34,2,2,0,0,1-1.3.46,2.06,2.06,0,0,1-1.3-.46,4.28,4.28,0,0,1-1.31-2.34,14.65,14.65,0,0,1-.39-3.68c0-4.41,1.21-6.6,3-6.6,2,0,3,2.4,3,6.48A15.58,15.58,0,0,1,81.65,34.18Z"/><path class="cls-2" d="M43.37,35.62a8.43,8.43,0,0,0,3.87,1c2.45,0,3.45-1.38,3.42-2.72,0-2-1.88-2.87-3.84-2.87H45.33V28.71h1.44c1.49,0,3.37-.68,3.37-2.38,0-1.15-.86-2.11-2.72-2.11a6.86,6.86,0,0,0-3.48,1.07L43.21,23a9.18,9.18,0,0,1,4.89-1.31c3.5,0,5.31,1.94,5.31,4.16a4.16,4.16,0,0,1-3.14,4v.05A4.28,4.28,0,0,1,54,34.07c0,2.88-2.41,5.16-6.62,5.16a9.32,9.32,0,0,1-4.76-1.18Z"/></svg>