<?xml version="1.0" encoding="utf-8"?>
<!-- Generator: Adobe Illustrator 24.1.2, SVG Export Plug-In . SVG Version: 6.00 Build 0)  -->
<svg version="1.1" id="Layer_1" xmlns="http://www.w3.org/2000/svg" xmlns:xlink="http://www.w3.org/1999/xlink" x="0px" y="0px"
	 viewBox="0 0 128 128" style="enable-background:new 0 0 128 128;" xml:space="preserve">
<style type="text/css">
	.st0{fill:#FADFB2;}
	.st1{fill:#C18E59;}
	.st2{fill:#976947;}
	.st3{fill:#F5CF88;}
	.st4{fill:#F8A052;}
	.st5{fill:#FCC58B;}
	.st6{fill:#F9AA5C;}
	.st7{fill:#D67728;}
	.st8{fill:#9CB43B;}
	.st9{fill:#C9BF3F;}
	.st10{fill:#FAD2D9;}
	.st11{fill:#F7B8C5;}
	.st12{fill:#C65A2E;}
	.st13{fill:#801518;}
	.st14{fill:#EF555E;}
	.st15{fill:#FCB630;}
	.st16{fill:none;}
	.st17{fill:#FF4A4A;}
	.st18{fill:#EF3535;}
	.st19{fill:#FFD782;}
	.st20{fill:#FF8000;}
	.st21{fill:#FF5F06;}
	.st22{fill:#FFFFFF;}
	.st23{fill:none;stroke:#000000;stroke-width:4.1217;stroke-linecap:round;stroke-linejoin:round;stroke-miterlimit:13.3333;}
</style>
<g>
	<path class="st0" d="M109.42,61.94c0-14.82-12.02-26.84-26.84-26.84c-0.12,0-0.23,0.02-0.35,0.02c0.21-1.36,0.35-2.73,0.35-4.15
		c0-14.82-12.02-26.84-26.84-26.84c-4.17,0-8.1,0.98-11.62,2.68c-4.33-2.98-9.56-4.74-15.22-4.74c-14.82,0-26.84,12.02-26.84,26.84
		c0,8.3,3.77,15.72,9.69,20.64C5.84,54.48,2.07,61.89,2.07,70.2c0,5.33,1.57,10.28,4.25,14.45c-2.68,4.17-4.25,9.13-4.25,14.45
		c0,14.82,12.02,26.84,26.84,26.84c5.33,0,10.28-1.57,14.45-4.25c4.17,2.68,9.13,4.25,14.45,4.25c11.2,0,20.79-6.87,24.81-16.62
		c13.84-1.08,24.73-12.62,24.73-26.73c0-2.73-0.41-5.37-1.17-7.85C108.25,70.93,109.42,66.57,109.42,61.94z"/>
	<path class="st1" d="M85.72,17.72L30.1,73.34c-1.6,1.6-1.6,4.19,0,5.79L48.88,97.9c1.6,1.6,4.19,1.6,5.79,0l55.62-55.62
		c1.6-1.6,1.6-4.19,0-5.79L91.51,17.72C89.91,16.12,87.32,16.12,85.72,17.72L85.72,17.72z"/>
	<path class="st2" d="M92.64,18.85l3.54-3.54c1.61-1.61,4.23-1.61,5.84,0l10.68,10.68c1.61,1.61,1.61,4.23,0,5.84l-3.54,3.53"/>
	<path class="st0" d="M103.23,16.52l12.99-12.99c0.94-0.94,2.2-1.46,3.52-1.46s2.59,0.52,3.52,1.46l1.21,1.21
		c0.94,0.94,1.46,2.2,1.46,3.52c0,1.32-0.52,2.59-1.46,3.52l-12.99,12.99"/>
	<path class="st2" d="M31.23,80.26l-3.54,3.54c-1.61,1.61-1.61,4.23,0,5.84l10.68,10.68c1.61,1.61,4.23,1.61,5.84,0l3.53-3.54"/>
	<path class="st1" d="M28.9,90.84l-12.99,12.99c-0.94,0.94-1.46,2.2-1.46,3.52c0,1.32,0.52,2.59,1.46,3.52l1.21,1.21
		c0.94,0.94,2.2,1.46,3.52,1.46c1.32,0,2.59-0.52,3.52-1.46L37.16,99.1"/>
	<ellipse class="st3" cx="99.1" cy="107.36" rx="26.84" ry="18.58"/>
	<g>
		<path class="st0" d="M109.42,117.68c-2.28,0-4.13-1.85-4.13-4.13c0-2.28,1.85-4.13,4.13-4.13c2.28,0,4.13,1.85,4.13,4.13
			C113.55,115.83,111.69,117.68,109.42,117.68z"/>
	</g>
	<g>
		<path class="st0" d="M97.03,121.8c-2.28,0-4.13-1.85-4.13-4.13c0-2.28,1.85-4.13,4.13-4.13s4.13,1.85,4.13,4.13
			C101.16,119.95,99.31,121.8,97.03,121.8z M97.03,117.67L97.03,117.67L97.03,117.67z"/>
	</g>
	<g>
		<path class="st2" d="M56.33,81.1l37.16-37.16l2.92,2.92L59.25,84.02L56.33,81.1z"/>
	</g>
	<g>
		<path d="M108.91,87.96c0.33-1.77,0.51-3.57,0.51-5.38c0-2.58-0.34-5.14-1.03-7.63c2.02-4.01,3.09-8.49,3.09-13.02
			c0-5-1.3-9.87-3.74-14.19l4-4c2.29-2.29,2.37-5.93,0.3-8.35l2.11-2.11c2.33-2.33,2.39-6.06,0.23-8.49l11.56-11.56
			c1.33-1.33,2.06-3.1,2.06-4.99s-0.73-3.65-2.06-4.99l-1.21-1.21c-2.66-2.66-7.3-2.67-9.97,0L103.2,13.62
			c-2.43-2.16-6.15-2.1-8.48,0.23l-2.11,2.11c-2.37-2-6.13-1.92-8.35,0.3l-2.39,2.39C77.14,8.62,67,2.06,55.74,2.06
			c-3.95,0-7.79,0.81-11.44,2.39C39.68,1.54,34.38,0,28.9,0C12.97,0,0,12.97,0,28.9c0,7.82,3.14,15.22,8.68,20.65
			C3.14,54.97,0,62.37,0,70.19c0,5.08,1.34,10.05,3.89,14.45C1.34,89.05,0,94.01,0,99.1C0,115.03,12.97,128,28.9,128
			c5.08,0,10.05-1.34,14.45-3.89c4.4,2.55,9.37,3.89,14.45,3.89c7.17,0,13.91-2.62,19.21-7.36c5.31,4.49,13.23,7.35,22.08,7.35
			c15.94,0,28.9-9.26,28.9-20.64C128,98.43,120.02,90.84,108.91,87.96L108.91,87.96z M117.68,4.99c1.11-1.11,3.02-1.11,4.13,0
			l1.21,1.21c0.55,0.55,0.85,1.28,0.85,2.07c0,0.78-0.3,1.51-0.85,2.06l-11.53,11.53l-5.34-5.34L117.68,4.99z M97.63,16.77
			c0.78-0.78,2.14-0.78,2.92,0l10.68,10.68c0.81,0.81,0.81,2.11,0,2.92l-2.08,2.08l-13.6-13.6L97.63,16.77z M87.18,19.18
			c0.38-0.39,0.89-0.59,1.43-0.59c0.54,0,1.05,0.21,1.43,0.59l18.77,18.77c0.38,0.38,0.59,0.89,0.59,1.43
			c0,0.54-0.21,1.05-0.59,1.43L53.21,96.44c-0.79,0.79-2.08,0.79-2.87,0L31.56,77.66c-0.79-0.79-0.79-2.08,0-2.87L87.18,19.18z
			 M29.15,88.17c-0.39-0.39-0.6-0.91-0.6-1.46s0.21-1.07,0.6-1.46l2.08-2.08l13.59,13.59l-2.08,2.07c-0.8,0.81-2.11,0.81-2.92,0
			L29.15,88.17z M34.24,99.1l-11.53,11.53c-1.1,1.11-3.02,1.11-4.13,0l-1.21-1.21c-0.56-0.55-0.86-1.28-0.86-2.07
			c0-0.77,0.31-1.52,0.86-2.06L28.9,93.76L34.24,99.1z M57.81,123.87c-4.73,0-9.34-1.36-13.34-3.92c-0.68-0.44-1.55-0.44-2.23,0
			c-4,2.56-8.61,3.92-13.34,3.92c-13.66,0-24.77-11.12-24.77-24.77c0-4.73,1.36-9.34,3.92-13.34c0.44-0.68,0.43-1.55,0-2.23
			c-2.57-4-3.92-8.61-3.92-13.34c0-7.38,3.26-14.33,8.95-19.06c0.47-0.39,0.75-0.97,0.74-1.59c0-0.61-0.27-1.19-0.74-1.59
			C7.39,43.23,4.13,36.29,4.13,28.9c0-13.66,11.11-24.77,24.77-24.77c5.04,0,9.89,1.51,14.04,4.38c0.61,0.42,1.4,0.49,2.07,0.16
			c3.4-1.64,7.01-2.47,10.73-2.47c10.16,0,19.25,6.22,22.99,15.59L28.64,71.87c-2.29,2.29-2.37,5.93-0.3,8.35l-2.11,2.11
			c-2.33,2.33-2.39,6.06-0.23,8.49l-11.56,11.55c-1.33,1.33-2.06,3.1-2.06,4.99s0.73,3.65,2.06,4.99l1.21,1.21
			c1.33,1.33,3.1,2.06,4.99,2.06c1.88,0,3.65-0.73,4.98-2.06l11.55-11.56c1.14,1.01,2.57,1.59,4.1,1.59c1.65,0,3.21-0.64,4.38-1.81
			l2.11-2.11c1.11,0.96,2.51,1.51,3.99,1.51c1.65,0,3.19-0.64,4.35-1.8l48.57-48.57c1.74,3.44,2.66,7.25,2.66,11.14
			c0,4.12-1.03,8.21-2.99,11.81c-0.26,0.49-0.32,1.06-0.16,1.59c0.72,2.35,1.09,4.79,1.09,7.25c0,1.53-0.19,3.04-0.47,4.54
			c-1.85-0.27-3.77-0.41-5.72-0.41c-15.94,0-28.9,9.26-28.9,20.64c0,3.77,1.45,7.3,3.93,10.35
			C69.61,121.68,63.89,123.87,57.81,123.87L57.81,123.87z M99.1,123.87c-13.66,0-24.77-7.41-24.77-16.51
			c0-9.11,11.11-16.52,24.77-16.52s24.77,7.41,24.77,16.52C123.87,116.46,112.76,123.87,99.1,123.87z"/>
		<path d="M109.42,109.42c-2.28,0-4.13,1.85-4.13,4.13c0,2.28,1.85,4.13,4.13,4.13c2.28,0,4.13-1.85,4.13-4.13
			C113.55,111.27,111.69,109.42,109.42,109.42z"/>
		<path d="M97.03,113.55c-2.28,0-4.13,1.85-4.13,4.13c0,2.28,1.85,4.13,4.13,4.13s4.13-1.85,4.13-4.13
			C101.16,115.4,99.31,113.55,97.03,113.55z"/>
		<path d="M56.33,81.1l37.16-37.16l2.92,2.92L59.25,84.02L56.33,81.1z"/>
	</g>
</g>
</svg>
