<svg id="Layer_1" data-name="Layer 1" xmlns="http://www.w3.org/2000/svg" viewBox="0 0 128 128"><defs><style>.cls-1{fill:#fff;}.cls-2{fill:#01652f;}</style></defs><circle class="cls-1" cx="64" cy="64" r="64"/><path class="cls-2" d="M112.28,70.21a6.67,6.67,0,0,0-3.88-3.34l-12.15-4a6.68,6.68,0,0,0-4-.21l-1.56.83c-3.58,2.6-9.24,5.52-11.57,4.38-.89-.44-1.35-1.7-1.35-3.71l.1-31.4a5.53,5.53,0,0,0-5.53-5.53h0a5.55,5.55,0,0,0-3.92,1.62,5.52,5.52,0,0,0-7.82,0,5.53,5.53,0,0,0-9.44,3.73L47.45,49.74l-.22.77a4.63,4.63,0,0,1-.81,1.75A7,7,0,0,1,37.52,54L22.34,44.48A4.77,4.77,0,0,0,17,44.1c-.8.51-2.55,2.07-1.81,5.66l5,25.18c3.4,17.21,7.54,25,23.16,25.84l9.78-.14,1.85-.12c.68,0,1.33-.17,2-.26l.16,0h0a1.71,1.71,0,0,0,.64-.14,41.39,41.39,0,0,0,12.9-4.47A67.72,67.72,0,0,0,85.43,84.86L88,82.42a11.6,11.6,0,0,1,8.34-3.14l8.15.74c4.09.32,6.87-1.23,8.17-4.7A6.67,6.67,0,0,0,112.28,70.21Zm-2.67,4c-.54,1.4-1.53,2.81-4.83,2.54L96.57,76a15.07,15.07,0,0,0-10.79,4L83.2,82.49a64.62,64.62,0,0,1-14,10.29A37.76,37.76,0,0,1,56.86,97l-6.08.54-.55,0c-.36,0-.73,0-1.09,0H46.36c-15.14,0-19.14-5.15-22.52-21l-.1-.45L23,72.43,18.38,49.1c-.24-1.11-.1-2,.36-2.26a1.68,1.68,0,0,1,1.78.33l15.32,9.66A10.27,10.27,0,0,0,49,54.26a7.53,7.53,0,0,0,1.38-2.93l4-18.23,0-.4a2.26,2.26,0,0,1,2.67-2.18A2.33,2.33,0,0,1,59,32.85v5.78a1.63,1.63,0,0,0,1,1.5,1.58,1.58,0,0,0,.53.12,1.72,1.72,0,0,0,1.74-1.75V32.88a2.36,2.36,0,0,1,2.15-2.4,2.29,2.29,0,0,1,2.41,2.28v5.78a1.67,1.67,0,0,0,1.46,1.7A1.61,1.61,0,0,0,70,38.63V32.76a2.29,2.29,0,0,1,4.57,0l-.1,31.4c0,.15,0,.27,0,.42a8.88,8.88,0,0,0,2,5.39,4.62,4.62,0,0,0,1.14.81c1.68.84,3.79.64,5.9,0l1.82-.63a34.18,34.18,0,0,0,5.26-2.73L92,66.5l.53-.37a2.38,2.38,0,0,1,1.5-.44h0a5.66,5.66,0,0,1,1.18.27l12.15,4a3.43,3.43,0,0,1,2.21,4.27Z"/></svg>