<svg id="Layer_1" data-name="Layer 1" xmlns="http://www.w3.org/2000/svg" viewBox="0 0 128 128"><defs><style>.cls-1{fill:#fff;}.cls-2{fill:#01652f;}</style></defs><circle class="cls-1" cx="64" cy="64" r="64"/><path class="cls-2" d="M46.76,85.17a1.43,1.43,0,0,0,1.42-1.42V81.68a1.42,1.42,0,1,0-2.84,0v2.07A1.42,1.42,0,0,0,46.76,85.17Z"/><path class="cls-2" d="M99.6,95.79H97.74V63.91a6.6,6.6,0,0,0,5.43-6.49V52.89s0-.09,0-.13h0s0-.08,0-.13,0,0,0,0a1,1,0,0,1,0-.1s0,0,0,0L98,42.38v-.87H30v.87L25,52.48s0,0,0,0a1,1,0,0,1,0,.1s0,0,0,0,0,.09,0,.13h0s0,.09,0,.13v4.53a6.6,6.6,0,0,0,5.43,6.49V95.79H28.4a3.64,3.64,0,0,0-3.63,3.63v3.64a1.85,1.85,0,0,0,1.85,1.85h74.76a1.85,1.85,0,0,0,1.85-1.85V99.42A3.64,3.64,0,0,0,99.6,95.79Zm1.27-38.36a4.28,4.28,0,1,1-8.56,0V54.15h8.56ZM96.12,43.81l4,8H92l-2.88-8Zm-9.48,0,2.88,8h-8.3l-1.73-8ZM90,54.15v3.27a4.29,4.29,0,1,1-8.57,0V54.15ZM77.14,43.81l1.73,8H70.5l-.58-8Zm2,10.34v3.27a4.29,4.29,0,1,1-8.57,0V54.15ZM60.38,43.81h7.24l.58,8H59.8Zm-.66,10.34h8.56v3.27a4.28,4.28,0,1,1-8.56,0ZM50.86,43.81h7.22l-.58,8H49.13Zm-2,10.34h8.57v3.27a4.29,4.29,0,1,1-8.57,0ZM53.14,64a6.59,6.59,0,0,0,5.43-2.87,6.57,6.57,0,0,0,10.86,0,6.57,6.57,0,0,0,10.86,0,6.58,6.58,0,0,0,10.87,0,6.62,6.62,0,0,0,4.28,2.77V95.79H52.17V70.26A2.14,2.14,0,0,0,50,68.11H36.75a2.14,2.14,0,0,0-2.14,2.15V95.79h-2V63.91a6.62,6.62,0,0,0,4.28-2.77,6.58,6.58,0,0,0,10.87,0A6.56,6.56,0,0,0,53.14,64Zm-3.27,6.4V95.79h-13V70.41ZM38,57.43V54.15h8.57v3.28a4.29,4.29,0,0,1-8.57,0ZM48.51,43.81l-1.73,8h-8.3l2.88-8Zm-16.63,0h7l-2.88,8h-8.2ZM27.13,57.43V54.15h8.56v3.28a4.28,4.28,0,1,1-8.56,0Zm73.8,45.18H27.07V99.42a1.33,1.33,0,0,1,1.33-1.33H99.6a1.33,1.33,0,0,1,1.33,1.33Z"/><path class="cls-2" d="M56.71,91.08H90.17a2.42,2.42,0,0,0,2.41-2.42V70.25a2.41,2.41,0,0,0-2.41-2.41h-14a1.43,1.43,0,1,0,0,2.85H89.74V88.23H57.15V70.69H70.7a1.43,1.43,0,1,0,0-2.85h-14a2.41,2.41,0,0,0-2.41,2.41V88.66A2.42,2.42,0,0,0,56.71,91.08Z"/><polygon class="cls-2" points="50.13 23.37 50.13 40.64 46.97 40.64 46.97 26.32 46.91 26.32 43.75 27.92 43.19 25.45 47.39 23.37 50.13 23.37"/><path class="cls-2" d="M63.45,23.09c-4,0-6.32,3.61-6.32,9a15.51,15.51,0,0,0,.42,3.62,9.33,9.33,0,0,0,.88,2.3,5.29,5.29,0,0,0,4.84,3,5.44,5.44,0,0,0,5-3,9.17,9.17,0,0,0,.87-2.3,16.09,16.09,0,0,0,.41-3.78C69.56,26.8,67.63,23.09,63.45,23.09Zm2.46,12.59A4.2,4.2,0,0,1,64.66,38a2,2,0,0,1-2.56,0,4.17,4.17,0,0,1-1.29-2.3,13.75,13.75,0,0,1-.38-3.62c0-4.33,1.19-6.48,3-6.48,2,0,2.92,2.36,2.92,6.37A15,15,0,0,1,65.91,35.68Z"/><path class="cls-2" d="M79,23.09c-4,0-6.32,3.61-6.32,9a15,15,0,0,0,.41,3.62A9.34,9.34,0,0,0,74,38a5.27,5.27,0,0,0,4.83,3,5.43,5.43,0,0,0,5-3,9.58,9.58,0,0,0,.88-2.3,16.09,16.09,0,0,0,.41-3.78C85.1,26.8,83.16,23.09,79,23.09Zm2.45,12.59A4.06,4.06,0,0,1,80.19,38a2,2,0,0,1-1.28.45A2,2,0,0,1,77.63,38a4.16,4.16,0,0,1-1.28-2.3A14.14,14.14,0,0,1,76,32.06c0-4.33,1.19-6.48,3-6.48,2,0,2.92,2.36,2.92,6.37A15,15,0,0,1,81.44,35.68Z"/></svg>