<svg id="Layer_1" data-name="Layer 1" xmlns="http://www.w3.org/2000/svg" viewBox="0 0 128 128"><defs><style>.cls-1{fill:#fff;}.cls-2{fill:#01652f;}</style></defs><circle class="cls-1" cx="64" cy="64" r="64"/><path class="cls-2" d="M47,81.93a1.41,1.41,0,0,0,1.41-1.4v-2a1.41,1.41,0,1,0-2.81,0v2A1.4,1.4,0,0,0,47,81.93Z"/><path class="cls-2" d="M99.2,92.43H97.36V60.91a6.52,6.52,0,0,0,5.37-6.41V50a.59.59,0,0,1,0-.13h0a.56.56,0,0,1,0-.12s0,0,0,0,0-.06,0-.1,0,0,0,0l-5-10v-.85H30.41v.85l-5,10s0,0,0,0,0,.06,0,.1,0,0,0,0a.56.56,0,0,1,0,.12h0a.59.59,0,0,1,0,.13V54.5a6.52,6.52,0,0,0,5.37,6.41V92.43H28.8A3.59,3.59,0,0,0,25.21,96v3.59a1.84,1.84,0,0,0,1.84,1.84H101a1.84,1.84,0,0,0,1.84-1.84V96A3.59,3.59,0,0,0,99.2,92.43Zm1.25-37.93a4.23,4.23,0,1,1-8.46,0V51.26h8.46ZM95.75,41l4,8h-8.1l-2.86-8Zm-9.37,0,2.85,8H81l-1.71-8Zm3.33,10.22V54.5a4.23,4.23,0,1,1-8.46,0V51.26ZM77,41l1.71,8H70.43l-.57-8Zm2,10.22V54.5a4.23,4.23,0,1,1-8.46,0V51.26ZM60.42,41h7.16l.57,8h-8.3Zm-.65,10.22h8.46V54.5a4.23,4.23,0,1,1-8.46,0ZM51,41h7.13l-.57,8H49.3ZM49,51.26h8.46V54.5a4.23,4.23,0,1,1-8.46,0ZM53.26,61a6.52,6.52,0,0,0,5.37-2.84,6.5,6.5,0,0,0,10.74,0,6.5,6.5,0,0,0,10.74,0,6.5,6.5,0,0,0,10.74,0,6.54,6.54,0,0,0,4.23,2.74V92.43H52.31V67.18a2.11,2.11,0,0,0-2.11-2.11H37.06A2.1,2.1,0,0,0,35,67.18V92.43h-2V60.91a6.54,6.54,0,0,0,4.23-2.74,6.5,6.5,0,0,0,10.74,0A6.5,6.5,0,0,0,53.26,61ZM50,67.34V92.43H37.22V67.34ZM38.29,54.5V51.26h8.46V54.5a4.23,4.23,0,1,1-8.46,0ZM48.68,41,47,49h-8.2l2.85-8ZM32.25,41h7l-2.86,8h-8.1ZM27.55,54.5V51.26H36V54.5a4.23,4.23,0,1,1-8.46,0Zm73,44.67h-73V96A1.32,1.32,0,0,1,28.8,94.7H99.2A1.32,1.32,0,0,1,100.51,96Z"/><path class="cls-2" d="M56.8,87.77H89.87a2.39,2.39,0,0,0,2.39-2.39V67.18a2.39,2.39,0,0,0-2.39-2.38H76a1.41,1.41,0,1,0,0,2.81H89.44V85H57.22V67.61H70.63a1.41,1.41,0,1,0,0-2.81H56.8a2.39,2.39,0,0,0-2.39,2.38v18.2A2.39,2.39,0,0,0,56.8,87.77Z"/><path class="cls-2" d="M63.71,20.55c-4,0-6.25,3.57-6.25,8.87A14.67,14.67,0,0,0,57.87,33a9.09,9.09,0,0,0,.87,2.27,5.23,5.23,0,0,0,4.78,2.92,5.36,5.36,0,0,0,4.95-2.92A8.58,8.58,0,0,0,69.34,33a15.74,15.74,0,0,0,.41-3.74C69.75,24.22,67.83,20.55,63.71,20.55ZM66.13,33a4.09,4.09,0,0,1-1.23,2.27,2,2,0,0,1-2.53,0A4,4,0,0,1,61.1,33a13.43,13.43,0,0,1-.38-3.58c0-4.28,1.17-6.4,2.91-6.4,1.94,0,2.89,2.33,2.89,6.29A14.73,14.73,0,0,1,66.13,33Z"/><path class="cls-2" d="M79.07,20.55c-4,0-6.25,3.57-6.25,8.87A14.67,14.67,0,0,0,73.23,33a9.09,9.09,0,0,0,.87,2.27,5.23,5.23,0,0,0,4.78,2.92,5.36,5.36,0,0,0,5-2.92A8.94,8.94,0,0,0,84.7,33a15.74,15.74,0,0,0,.41-3.74C85.11,24.22,83.19,20.55,79.07,20.55ZM81.49,33a4,4,0,0,1-1.23,2.27,2,2,0,0,1-2.53,0A4.07,4.07,0,0,1,76.45,33a13.9,13.9,0,0,1-.37-3.58c0-4.28,1.17-6.4,2.91-6.4,1.94,0,2.89,2.33,2.89,6.29A14.73,14.73,0,0,1,81.49,33Z"/><path class="cls-2" d="M42.89,37.9V36l2-1.84c4-3.66,5.81-5.68,5.84-7.9,0-1.5-.8-2.81-3-2.81a6.17,6.17,0,0,0-3.59,1.39l-.93-2.25a8.34,8.34,0,0,1,5.17-1.73c3.72,0,5.53,2.35,5.53,5.09,0,2.94-2.12,5.32-5,8l-1.47,1.27v.05h6.89V37.9Z"/></svg>