<svg id="Layer_1" data-name="Layer 1" xmlns="http://www.w3.org/2000/svg" viewBox="0 0 128 128"><defs><style>.cls-1{fill:#fff;}.cls-2{fill:#01652f;}</style></defs><circle class="cls-1" cx="64" cy="64" r="64"/><path class="cls-2" d="M104.07,30c-1.43-1.84-4.52-3.29-11.12.17C89,32.28,80.08,39.5,79.7,39.8a1.14,1.14,0,0,1-.51.13l-33.59-7a3.42,3.42,0,0,0-2.82.8L40.1,36.27a2.07,2.07,0,0,0,.31,3.3l22,14.2-9.78,8a1.24,1.24,0,0,1-.54.16L38.49,59.4a3.22,3.22,0,0,0-2.81,1l-1,1.13a2.22,2.22,0,0,0-.51,1.73,2.19,2.19,0,0,0,.94,1.52C41.32,69.16,48.22,74.14,49.07,75c.63,1,4.14,8.76,7.15,15.65a2.19,2.19,0,0,0,2,1.36,2.18,2.18,0,0,0,1.08-.28l1.29-.7a3.23,3.23,0,0,0,1.58-2.57l.27-13.81a1.26,1.26,0,0,1,.25-.52l9.79-8L82,90.51a2.07,2.07,0,0,0,3.17,1l3-2.12a3.39,3.39,0,0,0,1.34-2.6l-.14-34.31a1,1,0,0,1,.22-.48c.37-.31,9.23-7.61,12-11.06C106.4,35.13,105.59,31.81,104.07,30Zm-4.51,9.14C96.92,42.42,88,49.79,87.9,49.86a3.66,3.66,0,0,0-1.22,2.6l.15,34.3a.84.84,0,0,1-.19.36l-2.37,1.66L74.72,64.22a2,2,0,0,0-3.21-.85L61,72a3.74,3.74,0,0,0-1.26,2.57l-.27,13.79a.53.53,0,0,1-.15.25l-.79.44C56.4,84.19,52,74.14,51.2,73.22s-9.69-7.28-14-10.33l.57-.68A.73.73,0,0,1,38,62.1l13.63,2.5a3.71,3.71,0,0,0,2.75-.73l10.52-8.58a2.06,2.06,0,0,0,.78-1.71,2,2,0,0,0-1-1.6L42.57,37.7l2.09-2a.93.93,0,0,1,.39-.12l33.58,7a3.65,3.65,0,0,0,2.79-.68c.09-.07,9.1-7.36,12.8-9.29,2.24-1.18,6.22-2.85,7.7-.9l.06.07C103.6,33.66,101.16,37.22,99.56,39.18Z"/><path class="cls-2" d="M24.11,80.77a1.35,1.35,0,0,0,.87-.31l6.36-5.19a1.37,1.37,0,0,0-1.73-2.12l-6.36,5.19a1.37,1.37,0,0,0,.86,2.43Z"/><path class="cls-2" d="M45.22,92.27l-6.36,5.19a1.38,1.38,0,0,0-.19,1.93,1.36,1.36,0,0,0,1.06.5,1.34,1.34,0,0,0,.86-.31L47,94.39a1.37,1.37,0,1,0-1.73-2.12Z"/><path class="cls-2" d="M39.34,82.9a1.38,1.38,0,0,0-1.93-.19L23.55,94a1.37,1.37,0,1,0,1.73,2.12L39.15,84.83A1.38,1.38,0,0,0,39.34,82.9Z"/></svg>