<?xml version="1.0" encoding="utf-8"?>
<!-- Generator: Adobe Illustrator 24.1.2, SVG Export Plug-In . SVG Version: 6.00 Build 0)  -->
<svg version="1.1" id="Layer_1" xmlns="http://www.w3.org/2000/svg" xmlns:xlink="http://www.w3.org/1999/xlink" x="0px" y="0px"
	 viewBox="0 0 128 128" style="enable-background:new 0 0 128 128;" xml:space="preserve">
<style type="text/css">
	.st0{fill:#FADFB2;}
	.st1{fill:#C18E59;}
	.st2{fill:#976947;}
	.st3{fill:#F5CF88;}
	.st4{fill:#F8A052;}
	.st5{fill:#FCC58B;}
	.st6{fill:#F9AA5C;}
	.st7{fill:#D67728;}
	.st8{fill:#9CB43B;}
	.st9{fill:#C9BF3F;}
	.st10{fill:#FAD2D9;}
	.st11{fill:#F7B8C5;}
	.st12{fill:#C65A2E;}
	.st13{fill:#801518;}
	.st14{fill:#EF555E;}
	.st15{fill:#FCB630;}
	.st16{fill:none;}
	.st17{fill:#FF4A4A;}
	.st18{fill:#EF3535;}
	.st19{fill:#FFD782;}
	.st20{fill:#FF8000;}
	.st21{fill:#FF5F06;}
	.st22{fill:#FFFFFF;}
	.st23{fill:none;stroke:#000000;stroke-width:4.1217;stroke-linecap:round;stroke-linejoin:round;stroke-miterlimit:13.3333;}
</style>
<g>
	<g>
		<g>
			<g>
				<path class="st4" d="M126.12,20.79v79.13c0,3.21-2.6,5.81-5.81,5.81H7.68c-3.21,0-5.81-2.6-5.81-5.81V20.79
					c0-3.21,2.6-5.81,5.81-5.81h112.63C123.52,14.98,126.12,17.58,126.12,20.79z"/>
			</g>
		</g>
		<g>
			<g>
				<path class="st5" d="M126.12,12.29v79.13c0,3.21-2.6,5.81-5.81,5.81H7.68c-3.21,0-5.81-2.6-5.81-5.81V12.29
					c0-3.21,2.6-5.81,5.81-5.81h112.63C123.52,6.48,126.12,9.08,126.12,12.29z"/>
			</g>
		</g>
		<path class="st6" d="M44.09,91.43V12.29c0-3.21,2.6-5.81,5.81-5.81H7.68c-3.21,0-5.81,2.6-5.81,5.81v79.13
			c0,3.21,2.6,5.81,5.81,5.81H49.9C46.69,97.23,44.09,94.63,44.09,91.43z"/>
		<g id="XMLID_92_">
			<g>
				<path class="st7" d="M81,35.31c0,8.23-7.76,15.41-12.75,19.18v66.02c0,0.56-0.45,1-1,1h-6.23c-0.55,0-1-0.45-1-1V54.49
					c-4.99-3.77-12.75-10.94-12.75-19.18c0-12.14,7.55-21.98,16.87-21.98S81,23.17,81,35.31z"/>
			</g>
		</g>
		<g id="XMLID_96_">
			<g>
				<path class="st8" d="M64.48,49.5L64.48,49.5c-0.21,0.16-0.5,0.16-0.71,0l0,0C57.34,44.65,53.5,39.35,53.5,35.31
					c0-8.53,4.86-15.73,10.62-15.73s10.62,7.2,10.62,15.73C74.75,39.35,70.91,44.65,64.48,49.5z"/>
			</g>
		</g>
		<path class="st9" d="M64.12,19.58c-3,0-5.75,1.96-7.71,5.03c1.16-0.66,2.41-1.03,3.7-1.03c5.76,0,10.62,7.2,10.62,15.73
			c0,2.42-1.38,5.3-3.87,8.26c4.98-4.29,7.88-8.76,7.88-12.26C74.75,26.78,69.88,19.58,64.12,19.58z"/>
		<g id="XMLID_91_">
			<g>
				<path class="st7" d="M110.25,68.06c0,8.23-7.76,15.41-12.75,19.18v33.24c0,0.56-0.45,1-1,1h-6.23c-0.55,0-1-0.45-1-1V87.24
					C84.26,83.47,76.5,76.3,76.5,68.06c0-12.14,7.55-21.98,16.87-21.98S110.25,55.92,110.25,68.06z"/>
			</g>
		</g>
		<g id="XMLID_97_">
			<g>
				<path class="st10" d="M93.73,82.25L93.73,82.25c-0.21,0.16-0.5,0.16-0.71,0l0,0C86.59,77.4,82.75,72.1,82.75,68.06
					c0-8.53,4.86-15.73,10.62-15.73c5.76,0,10.62,7.2,10.62,15.73C104,72.1,100.16,77.4,93.73,82.25z"/>
			</g>
		</g>
		<path class="st11" d="M93.37,52.33c-2.99,0-5.73,1.94-7.69,5c1.17-0.67,2.43-1.05,3.73-1.05c5.76,0,10.62,7.2,10.62,15.73
			c0,2.43-1.39,5.31-3.9,8.28c4.96-4.28,7.85-8.74,7.85-12.24C104,59.53,99.13,52.33,93.37,52.33z"/>
		<g id="XMLID_93_">
			<g>
				<path class="st7" d="M51.75,68.06c0,8.23-7.76,15.41-12.75,19.18v33.24c0,0.56-0.45,1-1,1h-6.23c-0.55,0-1-0.45-1-1V87.24
					C25.76,83.47,18,76.3,18,68.06c0-12.14,7.55-21.98,16.87-21.98S51.75,55.92,51.75,68.06z"/>
			</g>
		</g>
		<path class="st12" d="M65.38,120.51V57c0-1.55-0.7-3.02-1.89-4c-4.85-4-10.86-10.43-10.86-17.68c0-10.95,6.14-20.03,14.19-21.7
			c-0.88-0.18-1.77-0.28-2.69-0.28c-9.32,0-16.87,9.84-16.87,21.98c0,8.23,7.76,15.41,12.75,19.18v66.02c0,0.56,0.45,1,1,1h5.37
			C65.83,121.51,65.38,121.06,65.38,120.51z"/>
		<path class="st12" d="M94.63,120.48V87.24c-4.99-3.77-12.75-10.94-12.75-19.18c0-10.95,6.14-20.03,14.19-21.7
			c-0.88-0.18-1.77-0.28-2.69-0.28c-9.32,0-16.87,9.84-16.87,21.98c0,8.23,7.76,15.41,12.75,19.18v33.24c0,0.56,0.45,1,1,1h5.37
			C95.08,121.48,94.63,121.03,94.63,120.48z"/>
		<path class="st12" d="M36.13,120.48V90.66c0-2.09-0.91-4.07-2.49-5.42c-4.73-4.03-10.26-10.23-10.26-17.18
			c0-10.95,6.14-20.03,14.19-21.7c-0.88-0.18-1.77-0.28-2.69-0.28C25.55,46.08,18,55.92,18,68.06c0,8.23,7.76,15.41,12.75,19.18
			v33.24c0,0.56,0.45,1,1,1h5.37C36.58,121.48,36.13,121.03,36.13,120.48z"/>
		<g id="XMLID_94_">
			<g>
				<g>
					<path class="st13" d="M45.5,68.06c0,4.03-3.84,9.34-10.27,14.19l-0.35,0.27l-0.35-0.27C28.09,77.4,24.25,72.1,24.25,68.06
						c0-8.53,4.86-15.73,10.62-15.73S45.5,59.53,45.5,68.06z"/>
				</g>
			</g>
		</g>
		<g id="XMLID_100_">
			<g>
				<path class="st14" d="M86.62,61.98c1.52,0,2.75,1.23,2.75,2.75c0,1.52-1.23,2.75-2.75,2.75c-1.52,0-2.75-1.23-2.75-2.75
					C83.87,63.21,85.1,61.98,86.62,61.98z"/>
			</g>
		</g>
		<g id="XMLID_98_">
			<g>
				<path class="st14" d="M93.12,53.48c1.52,0,2.75,1.23,2.75,2.75c0,1.52-1.23,2.75-2.75,2.75c-1.52,0-2.75-1.23-2.75-2.75
					C90.37,54.71,91.6,53.48,93.12,53.48z"/>
			</g>
		</g>
		<g id="XMLID_102_">
			<g>
				<path class="st14" d="M108.37,38.48c1.52,0,2.75,1.23,2.75,2.75s-1.23,2.75-2.75,2.75s-2.75-1.23-2.75-2.75
					S106.85,38.48,108.37,38.48z"/>
			</g>
			<g>
				<path class="st14" d="M117.87,25.98c1.52,0,2.75,1.23,2.75,2.75c0,1.52-1.23,2.75-2.75,2.75c-1.52,0-2.75-1.23-2.75-2.75
					C115.12,27.21,116.35,25.98,117.87,25.98z"/>
			</g>
		</g>
		<g id="XMLID_104_">
			<g>
				<path class="st14" d="M118.87,53.48c1.52,0,2.75,1.23,2.75,2.75c0,1.52-1.23,2.75-2.75,2.75c-1.52,0-2.75-1.23-2.75-2.75
					C116.12,54.71,117.35,53.48,118.87,53.48z"/>
			</g>
		</g>
		<g id="XMLID_105_">
			<g>
				<path class="st14" d="M117.12,75.23c1.52,0,2.75,1.23,2.75,2.75c0,1.52-1.23,2.75-2.75,2.75c-1.52,0-2.75-1.23-2.75-2.75
					C114.37,76.46,115.6,75.23,117.12,75.23z"/>
			</g>
		</g>
		<g id="XMLID_99_">
			<g>
				<path class="st14" d="M97.62,61.98c1.52,0,2.75,1.23,2.75,2.75c0,1.52-1.23,2.75-2.75,2.75c-1.52,0-2.75-1.23-2.75-2.75
					C94.87,63.21,96.1,61.98,97.62,61.98z"/>
			</g>
		</g>
		<g id="XMLID_101_">
			<g>
				<path class="st14" d="M93.37,70.23c1.52,0,2.75,1.23,2.75,2.75s-1.23,2.75-2.75,2.75c-1.52,0-2.75-1.23-2.75-2.75
					S91.85,70.23,93.37,70.23z"/>
			</g>
		</g>
		<g id="XMLID_95_">
			<g>
				<path class="st15" d="M44.99,63.36c0.33,1.49,0.51,3.07,0.51,4.7c0,4.03-3.84,9.34-10.27,14.19l0,0c-0.21,0.16-0.5,0.16-0.71,0
					l0,0C28.09,77.4,24.25,72.1,24.25,68.06c0-2.14,0.31-4.2,0.86-6.08l3.16,3.46c1.01,1.11,2.75,1.15,3.81,0.09
					c1.18-1.18,3.16-0.98,4.07,0.43l0.37,0.57c0.86,1.31,2.66,1.59,3.88,0.6L44.99,63.36z"/>
			</g>
		</g>
	</g>
	<g>
		<path d="M76.62,35.31c0-4.49-1.23-8.8-3.47-12.11c-2.36-3.49-5.65-5.49-9.03-5.49s-6.67,2-9.03,5.49
			c-2.24,3.32-3.47,7.62-3.47,12.11c0,4.69,4.01,10.41,11.01,15.68h0L63,51.26c0.33,0.25,0.73,0.38,1.13,0.38
			c0.4,0,0.79-0.13,1.13-0.38L65.61,51C72.61,45.72,76.62,40,76.62,35.31z M64.12,47.41c-5.42-4.26-8.75-8.85-8.75-12.09
			c0-7.38,4.09-13.86,8.75-13.86s8.75,6.48,8.75,13.86C72.87,38.56,69.54,43.14,64.12,47.41z"/>
		<path d="M105.87,68.06c0-4.49-1.23-8.8-3.47-12.11c-2.36-3.49-5.65-5.49-9.03-5.49s-6.67,2-9.03,5.49
			c-2.24,3.32-3.47,7.62-3.47,12.11c0,4.69,4.01,10.41,11.01,15.68c0,0,0,0,0,0l0.36,0.27c0.33,0.25,0.73,0.38,1.13,0.38
			s0.79-0.13,1.13-0.38l0.36-0.27C101.86,78.47,105.87,72.75,105.87,68.06z M93.12,55.36c0.48,0,0.88,0.39,0.88,0.88
			c0,0.48-0.39,0.87-0.88,0.87s-0.88-0.39-0.88-0.87C92.25,55.75,92.64,55.36,93.12,55.36z M86.62,63.86c0.48,0,0.88,0.39,0.88,0.87
			s-0.39,0.88-0.88,0.88s-0.87-0.39-0.87-0.88S86.14,63.86,86.62,63.86z M93.37,80.16c-4.95-3.9-8.16-8.06-8.67-11.22
			c0.59,0.27,1.24,0.42,1.92,0.42c2.55,0,4.62-2.07,4.62-4.62s-2.07-4.62-4.62-4.62c-0.11,0-0.21,0.01-0.32,0.02
			c0.61-1.33,1.36-2.5,2.22-3.44c0.23,2.34,2.2,4.18,4.6,4.18c2.55,0,4.62-2.07,4.62-4.62c0-0.01,0-0.03,0-0.04
			c1.38,1.32,2.53,3.22,3.31,5.45c-0.85-0.94-2.07-1.54-3.43-1.54c-2.55,0-4.62,2.07-4.62,4.62c0,2.55,2.07,4.62,4.62,4.62
			c2.06,0,3.81-1.36,4.41-3.22c0.06,0.63,0.09,1.27,0.09,1.92C102.12,71.31,98.79,75.89,93.37,80.16z M98.5,64.73
			c0,0.48-0.39,0.88-0.87,0.88c-0.48,0-0.88-0.39-0.88-0.88s0.39-0.87,0.88-0.87C98.11,63.86,98.5,64.25,98.5,64.73z"/>
		<path d="M47.37,68.06c0-4.49-1.23-8.8-3.47-12.11c-2.36-3.49-5.65-5.49-9.03-5.49s-6.67,2-9.03,5.49
			c-2.24,3.32-3.47,7.62-3.47,12.11c0,4.69,4.01,10.41,11.01,15.68c0,0,0,0,0,0l0.36,0.27c0.33,0.25,0.73,0.38,1.13,0.38
			c0.4,0,0.79-0.13,1.13-0.38l0.36-0.27C43.36,78.47,47.37,72.75,47.37,68.06z M34.87,54.2c3.47,0,6.62,3.59,8,8.46l-3.67,3
			c-0.23,0.19-0.47,0.18-0.6,0.16c-0.13-0.02-0.36-0.09-0.52-0.34l-0.37-0.57c-0.75-1.14-1.95-1.88-3.31-2.02
			c-1.36-0.14-2.69,0.33-3.66,1.3c-0.2,0.2-0.43,0.23-0.56,0.22c-0.12,0-0.35-0.04-0.55-0.25l-2.42-2.65
			C28.76,57.24,31.68,54.2,34.87,54.2z M34.87,80.16c-5.42-4.26-8.75-8.85-8.75-12.09c0-0.7,0.04-1.39,0.11-2.06l0.65,0.71
			c0.83,0.91,2,1.44,3.23,1.47c1.23,0.03,2.43-0.45,3.29-1.32c0.22-0.22,0.48-0.23,0.62-0.22c0.13,0.01,0.39,0.08,0.56,0.34
			l0.37,0.57c0.7,1.07,1.83,1.8,3.09,1.99c0.23,0.04,0.46,0.05,0.69,0.05c1.04,0,2.05-0.36,2.86-1.02l2-1.64
			c0.02,0.37,0.03,0.75,0.03,1.13C43.62,71.31,40.29,75.89,34.87,80.16z"/>
		<path d="M120.32,4.61H7.68C3.45,4.61,0,8.06,0,12.29v87.64l0,0c0,4.24,3.45,7.68,7.68,7.68h21.2v13.87c0,1.04,0.84,1.87,1.87,1.87
			h8.24c1.04,0,1.87-0.84,1.87-1.87v-13.87h17.26v13.91c0,1.04,0.84,1.87,1.87,1.87h8.24c1.04,0,1.87-0.84,1.87-1.87v-13.91h17.26
			v13.87c0,1.04,0.84,1.87,1.88,1.87h8.24c1.04,0,1.87-0.84,1.87-1.87v-13.87h20.95c4.24,0,7.68-3.45,7.68-7.68l0,0V12.29
			C128,8.06,124.55,4.61,120.32,4.61z M7.68,103.86c-2.17,0-3.93-1.76-3.93-3.93v-1.9c0.02,0.01,0.04,0.02,0.06,0.04
			c0.1,0.06,0.21,0.12,0.31,0.17c0.04,0.02,0.08,0.04,0.12,0.06c0.11,0.05,0.22,0.11,0.33,0.15c0.03,0.01,0.06,0.03,0.09,0.04
			c0.14,0.06,0.28,0.11,0.42,0.17c0.04,0.01,0.07,0.03,0.11,0.04c0.11,0.04,0.22,0.07,0.33,0.11c0.05,0.01,0.09,0.03,0.13,0.04
			c0.13,0.04,0.26,0.07,0.39,0.1c0.02,0,0.04,0.01,0.06,0.01c0.15,0.03,0.3,0.06,0.46,0.08c0.04,0.01,0.09,0.01,0.13,0.02
			c0.12,0.01,0.24,0.03,0.36,0.04c0.05,0,0.09,0.01,0.14,0.01c0.16,0.01,0.32,0.02,0.48,0.02h21.2v4.75L7.68,103.86L7.68,103.86z
			 M37.12,119.61h-4.49l0,0V87.24l0,0c0-0.59-0.28-1.14-0.75-1.5c-4.49-3.38-12.01-10.18-12.01-17.68c0-11.09,6.73-20.11,15-20.11
			s15,9.02,15,20.11c0,7.5-7.52,14.3-12.01,17.68c-0.47,0.35-0.75,0.91-0.75,1.5l0,0L37.12,119.61L37.12,119.61z M40.87,103.86
			v-4.75h17.26v4.75H40.87z M66.37,119.64h-4.49l0,0V83.36l0,0c0-1.04-0.84-1.87-1.87-1.87s-1.87,0.84-1.87,1.87v12H40.87v-7.2
			c5.09-3.97,12.76-11.41,12.76-20.1c0-13.16-8.41-23.86-18.75-23.86s-18.75,10.7-18.75,23.86c0,8.69,7.67,16.13,12.76,20.1v7.2
			H7.68c-2.17,0-3.93-1.76-3.93-3.93V12.29c0-2.17,1.76-3.93,3.93-3.93h112.64c2.17,0,3.93,1.76,3.93,3.93v79.14
			c0,2.17-1.76,3.93-3.93,3.93H99.37v-7.2c5.09-3.97,12.76-11.41,12.76-20.1c0-13.16-8.41-23.86-18.75-23.86
			s-18.75,10.7-18.75,23.86c0,8.69,7.67,16.13,12.76,20.1v7.2H70.12V55.41c5.09-3.97,12.76-11.41,12.76-20.1
			c0-13.16-8.41-23.86-18.75-23.86s-18.75,10.7-18.75,23.86c0,8.69,7.67,16.13,12.76,20.1v20.45c0,1.04,0.84,1.88,1.87,1.88
			s1.87-0.84,1.87-1.88V54.49c0-0.59-0.28-1.14-0.75-1.5c-4.49-3.38-12.01-10.18-12.01-17.68c0-11.09,6.73-20.11,15-20.11
			s15,9.02,15,20.11c0,7.5-7.52,14.3-12.01,17.68c-0.47,0.35-0.75,0.91-0.75,1.5L66.37,119.64L66.37,119.64L66.37,119.64z
			 M70.12,103.86v-4.75h17.26v4.75H70.12z M95.62,119.61h-4.49l0,0V87.24l0,0c0-0.59-0.28-1.14-0.75-1.5
			c-4.49-3.38-12.01-10.18-12.01-17.68c0-11.09,6.73-20.11,15-20.11s15,9.02,15,20.11c0,7.5-7.52,14.3-12.01,17.68
			c-0.47,0.35-0.75,0.91-0.75,1.5l0,0L95.62,119.61L95.62,119.61z M124.25,99.93c0,2.17-1.76,3.93-3.93,3.93H99.37v-4.75h20.95
			c0.16,0,0.32-0.01,0.48-0.02c0.05,0,0.09-0.01,0.14-0.01c0.12-0.01,0.24-0.02,0.36-0.04c0.04-0.01,0.09-0.01,0.13-0.02
			c0.15-0.02,0.31-0.05,0.46-0.08c0.02,0,0.04-0.01,0.06-0.01c0.13-0.03,0.26-0.06,0.39-0.1c0.05-0.01,0.09-0.03,0.14-0.04
			c0.11-0.03,0.22-0.07,0.33-0.11c0.04-0.01,0.07-0.02,0.11-0.04c0.14-0.05,0.28-0.11,0.42-0.17c0.03-0.01,0.06-0.03,0.09-0.04
			c0.11-0.05,0.22-0.1,0.33-0.15c0.04-0.02,0.08-0.04,0.12-0.06c0.11-0.06,0.21-0.11,0.31-0.17c0.02-0.01,0.04-0.02,0.06-0.04
			L124.25,99.93L124.25,99.93z"/>
		<path d="M108.37,45.86c2.55,0,4.62-2.07,4.62-4.62s-2.07-4.62-4.62-4.62s-4.62,2.07-4.62,4.62S105.82,45.86,108.37,45.86z
			 M108.37,40.36c0.48,0,0.88,0.39,0.88,0.88s-0.39,0.88-0.88,0.88s-0.88-0.39-0.88-0.88S107.89,40.36,108.37,40.36z"/>
		<path d="M117.87,33.36c2.55,0,4.62-2.07,4.62-4.62s-2.07-4.62-4.62-4.62c-2.55,0-4.62,2.07-4.62,4.62S115.32,33.36,117.87,33.36z
			 M117.87,27.86c0.48,0,0.87,0.39,0.87,0.88c0,0.48-0.39,0.87-0.87,0.87c-0.48,0-0.88-0.39-0.88-0.87
			C117,28.25,117.39,27.86,117.87,27.86z"/>
		<path d="M118.87,51.61c-2.55,0-4.62,2.07-4.62,4.62c0,2.55,2.07,4.62,4.62,4.62c2.55,0,4.62-2.07,4.62-4.62
			C123.5,53.68,121.43,51.61,118.87,51.61z M118.87,57.11c-0.48,0-0.87-0.39-0.87-0.87c0-0.48,0.39-0.88,0.87-0.88
			s0.88,0.39,0.88,0.88C119.75,56.72,119.36,57.11,118.87,57.11z"/>
		<path d="M117.12,73.36c-2.55,0-4.62,2.07-4.62,4.62c0,2.55,2.07,4.62,4.62,4.62c2.55,0,4.62-2.07,4.62-4.62
			C121.75,75.43,119.68,73.36,117.12,73.36z M117.12,78.86c-0.48,0-0.88-0.39-0.88-0.88s0.39-0.88,0.88-0.88S118,77.5,118,77.98
			S117.61,78.86,117.12,78.86z"/>
		<path d="M93.37,68.36c-2.55,0-4.62,2.07-4.62,4.62s2.07,4.62,4.62,4.62c2.55,0,4.62-2.07,4.62-4.62S95.93,68.36,93.37,68.36z
			 M93.37,73.86c-0.48,0-0.88-0.39-0.88-0.88s0.39-0.88,0.88-0.88s0.87,0.39,0.87,0.88S93.86,73.86,93.37,73.86z"/>
		<path d="M60.72,27.46l2.25,1.75c0.34,0.27,0.75,0.4,1.15,0.4c0.56,0,1.11-0.25,1.48-0.72c0.64-0.82,0.49-2-0.33-2.63l-2.25-1.75
			c-0.82-0.64-1.99-0.49-2.63,0.33C59.76,25.65,59.91,26.83,60.72,27.46z"/>
		<path d="M64.13,36.11c0.22,0,0.44-0.04,0.66-0.12l2-0.75c0.97-0.36,1.46-1.44,1.1-2.41c-0.36-0.97-1.44-1.46-2.41-1.1l-2,0.75
			c-0.97,0.36-1.46,1.44-1.1,2.41C62.65,35.65,63.37,36.11,64.13,36.11z"/>
		<path d="M60.73,32.47c-0.15-1.03-1.1-1.74-2.12-1.59c-1.03,0.15-1.74,1.1-1.59,2.12l0.5,3.5c0.13,0.94,0.94,1.61,1.85,1.61
			c0.09,0,0.18-0.01,0.27-0.02c1.03-0.15,1.74-1.1,1.59-2.12L60.73,32.47z"/>
		<path d="M65.24,37.22l-2.5,2.75c-0.7,0.77-0.64,1.95,0.13,2.65c0.36,0.33,0.81,0.49,1.26,0.49c0.51,0,1.02-0.21,1.39-0.61
			l2.5-2.75c0.7-0.77,0.64-1.95-0.13-2.65C67.12,36.4,65.93,36.46,65.24,37.22z"/>
		<path d="M71.3,29.02l-1.25-1c-0.81-0.65-1.99-0.52-2.64,0.29c-0.65,0.81-0.52,1.99,0.29,2.64l1.25,1
			c0.35,0.28,0.76,0.41,1.17,0.41c0.55,0,1.1-0.24,1.47-0.7C72.24,30.85,72.1,29.67,71.3,29.02z"/>
		<path d="M80.48,17.5l2.75,1c0.21,0.08,0.43,0.11,0.64,0.11c0.77,0,1.49-0.47,1.76-1.23c0.35-0.97-0.15-2.05-1.12-2.4l-2.75-1
			c-0.97-0.35-2.05,0.15-2.4,1.12C79.01,16.07,79.51,17.14,80.48,17.5z"/>
		<path d="M84.06,22.52c0.36,0.54,0.96,0.84,1.56,0.84c0.36,0,0.72-0.1,1.04-0.32l3-2c0.86-0.57,1.09-1.74,0.52-2.6
			c-0.57-0.86-1.74-1.09-2.6-0.52l-3,2C83.72,20.5,83.49,21.66,84.06,22.52z"/>
		<path d="M88.79,31.1l-2.25-1.25c-0.91-0.5-2.05-0.18-2.55,0.73c-0.5,0.91-0.18,2.05,0.73,2.55l2.25,1.25
			c0.29,0.16,0.6,0.24,0.91,0.24c0.66,0,1.3-0.35,1.64-0.96C90.02,32.74,89.69,31.6,88.79,31.1z"/>
		<path d="M47.38,17.61c0.38,0,0.76-0.11,1.09-0.35c0.84-0.6,1.04-1.77,0.44-2.62l-1.25-1.75c-0.6-0.84-1.77-1.04-2.62-0.44
			c-0.84,0.6-1.04,1.77-0.44,2.62l1.25,1.75C46.22,17.34,46.79,17.61,47.38,17.61z"/>
		<path d="M42.46,19.96c-0.84-0.6-2.01-0.41-2.62,0.44l-1.25,1.75c-0.6,0.84-0.41,2.01,0.44,2.62c0.33,0.24,0.71,0.35,1.09,0.35
			c0.59,0,1.16-0.27,1.53-0.79l1.25-1.75C43.5,21.73,43.31,20.56,42.46,19.96z"/>
		<path d="M38.02,31.48c-0.69-0.77-1.88-0.83-2.65-0.14c-0.77,0.69-0.83,1.88-0.14,2.65l2.25,2.5c0.37,0.41,0.88,0.62,1.39,0.62
			c0.45,0,0.9-0.16,1.25-0.48c0.77-0.69,0.83-1.88,0.14-2.65L38.02,31.48z"/>
		<path d="M36.03,27.46c0.82-0.64,0.96-1.81,0.33-2.63l-1.75-2.25c-0.64-0.82-1.81-0.96-2.63-0.33c-0.82,0.64-0.96,1.81-0.33,2.63
			l1.75,2.25c0.37,0.48,0.92,0.72,1.48,0.72C35.28,27.86,35.68,27.73,36.03,27.46z"/>
	</g>
</g>
</svg>
