<?xml version="1.0" encoding="utf-8"?>
<!-- Generator: Adobe Illustrator 24.1.2, SVG Export Plug-In . SVG Version: 6.00 Build 0)  -->
<svg version="1.1" id="Layer_1" xmlns="http://www.w3.org/2000/svg" xmlns:xlink="http://www.w3.org/1999/xlink" x="0px" y="0px"
	 viewBox="0 0 128 128" style="enable-background:new 0 0 128 128;" xml:space="preserve">
<style type="text/css">
	.st0{fill:#FADFB2;}
	.st1{fill:#C18E59;}
	.st2{fill:#976947;}
	.st3{fill:#F5CF88;}
	.st4{fill:#F8A052;}
	.st5{fill:#FCC58B;}
	.st6{fill:#F9AA5C;}
	.st7{fill:#D67728;}
	.st8{fill:#9CB43B;}
	.st9{fill:#C9BF3F;}
	.st10{fill:#FAD2D9;}
	.st11{fill:#F7B8C5;}
	.st12{fill:#C65A2E;}
	.st13{fill:#801518;}
	.st14{fill:#EF555E;}
	.st15{fill:#FCB630;}
	.st16{fill:none;}
	.st17{fill:#FF4A4A;}
	.st18{fill:#EF3535;}
	.st19{fill:#FFD782;}
	.st20{fill:#FF8000;}
	.st21{fill:#FF5F06;}
	.st22{fill:#FFFFFF;}
	.st23{fill:none;stroke:#000000;stroke-width:4.1217;stroke-linecap:round;stroke-linejoin:round;stroke-miterlimit:13.3333;}
</style>
<rect class="st16" width="128" height="128"/>
<g>
	<g id="g9940" transform="translate(383.2002,47.9004)">
		<path id="path9942" class="st17" d="M-284.25,70.64l-12.87-3.63c-0.98-0.27-2.01,0.16-2.5,1.04l-6.44,11.72
			c-0.26,0.47-0.94,0.43-1.15-0.06L-313,65.87l-13.94-33.31l10.32-24.66l8.77,3.67l8.78,20.99l15.57,37.22
			C-283.28,70.27-283.73,70.79-284.25,70.64"/>
	</g>
	<g id="g9944" transform="translate(329.2998,186.4805)">
		<path id="path9946" class="st18" d="M-245.16-106.02l-13.94,33.31l-13.94-33.31l10.32-24.66l8.77,3.67L-245.16-106.02z"/>
	</g>
	<g id="g9948" transform="translate(208.1807,14.6807)">
		<path id="path9950" class="st17" d="M-157.32,112.99l-6.44-11.72c-0.49-0.89-1.52-1.32-2.5-1.05l-12.87,3.63
			c-0.52,0.15-0.97-0.37-0.76-0.86l27.12-64.81l23.72,9.93l-27.12,64.81C-156.38,113.42-157.06,113.46-157.32,112.99"/>
	</g>
	<g id="g9952" transform="translate(277.0635,496.7246)">
		<path id="path9954" class="st19" d="M-207.28-492.72l7.92,6.53c1.4,1.15,3.11,1.86,4.92,2.04l10.21,0.98
			c4.34,0.42,7.77,3.85,8.19,8.19l0.98,10.21c0.17,1.81,0.88,3.52,2.04,4.92l6.53,7.92c2.77,3.36,2.77,8.21,0,11.58l-6.53,7.92
			c-1.15,1.4-1.86,3.11-2.04,4.92l-0.98,10.21c-0.42,4.34-3.85,7.77-8.19,8.19l-10.21,0.98c-1.8,0.17-3.52,0.88-4.92,2.04
			l-7.92,6.53c-3.36,2.77-8.21,2.77-11.58,0l-7.92-6.53c-1.4-1.15-3.11-1.86-4.92-2.04l-10.21-0.98c-4.34-0.42-7.77-3.85-8.19-8.19
			l-0.98-10.21c-0.17-1.8-0.88-3.52-2.04-4.92l-6.53-7.92c-2.77-3.36-2.77-8.21,0-11.58l6.53-7.92c1.15-1.4,1.86-3.11,2.04-4.92
			l0.98-10.21c0.42-4.34,3.85-7.77,8.19-8.19l10.21-0.98c1.8-0.17,3.52-0.88,4.92-2.04l7.92-6.53
			C-215.49-495.49-210.64-495.49-207.28-492.72"/>
	</g>
	<g id="g9956" transform="translate(365.667,327.2715)">
		<path id="path9958" class="st20" d="M-271.53-276.7c0,16.64-13.49,30.13-30.13,30.13c-16.64,0-30.13-13.49-30.13-30.13
			c0-16.64,13.49-30.13,30.13-30.13C-285.02-306.84-271.53-293.35-271.53-276.7"/>
	</g>
	<g id="g9960" transform="translate(256,436.9375)">
		<path id="path9962" class="st21" d="M-192-416.5c-2.61,0-5.15,0.33-7.57,0.96c12.98,3.36,22.57,15.15,22.57,29.18
			s-9.59,25.82-22.57,29.18c2.42,0.63,4.95,0.96,7.57,0.96c16.64,0,30.13-13.49,30.13-30.13C-161.87-403.01-175.36-416.5-192-416.5"
			/>
	</g>
	<g id="g9964" transform="translate(230.4883,271.5488)">
		<path id="path9966" class="st22" d="M-173.5-205.67c-1.12,0-2.2-0.45-3-1.24l-9-9c-1.66-1.66-1.66-4.34,0-6
			c1.66-1.66,4.34-1.66,6,0l6,6l16.65-16.65c1.66-1.66,4.34-1.66,6,0c1.66,1.66,1.66,4.34,0,6l-19.65,19.65
			C-171.29-206.12-172.37-205.67-173.5-205.67"/>
	</g>
	<g id="g9968" transform="translate(328.0801,189.4004)">
		<path id="path9970" class="st23" d="M-244.27-109.74l15.91,38.02c0.21,0.49-0.25,1.01-0.76,0.86L-242-74.49
			c-0.98-0.27-2.01,0.16-2.5,1.04l-6.44,11.72c-0.26,0.47-0.94,0.43-1.15-0.06l-7.79-18.63"/>
	</g>
	<g id="g9972" transform="translate(183.9199,189.4004)">
		<path id="path9974" class="st23" d="M-139.73-109.74l-15.91,38.02c-0.21,0.49,0.25,1.01,0.76,0.86l12.87-3.63
			c0.98-0.27,2.01,0.16,2.5,1.04l6.44,11.72c0.26,0.47,0.94,0.43,1.15-0.06l11.99-28.65l3.95-9.45"/>
	</g>
	<g id="g9976" transform="translate(277.0635,496.7246)">
		<path id="path9978" class="st23" d="M-207.28-492.72l7.92,6.53c1.4,1.15,3.11,1.86,4.92,2.04l10.21,0.98
			c4.34,0.42,7.77,3.85,8.19,8.19l0.98,10.21c0.17,1.81,0.88,3.52,2.04,4.92l6.53,7.92c2.77,3.36,2.77,8.21,0,11.58l-6.53,7.92
			c-1.15,1.4-1.86,3.11-2.04,4.92l-0.98,10.21c-0.42,4.34-3.85,7.77-8.19,8.19l-10.21,0.98c-1.8,0.17-3.52,0.88-4.92,2.04
			l-7.92,6.53c-3.36,2.77-8.21,2.77-11.58,0l-7.92-6.53c-1.4-1.15-3.11-1.86-4.92-2.04l-10.21-0.98c-4.34-0.42-7.77-3.85-8.19-8.19
			l-0.98-10.21c-0.17-1.8-0.88-3.52-2.04-4.92l-6.53-7.92c-2.77-3.36-2.77-8.21,0-11.58l6.53-7.92c1.15-1.4,1.86-3.11,2.04-4.92
			l0.98-10.21c0.42-4.34,3.85-7.77,8.19-8.19l10.21-0.98c1.8-0.17,3.52-0.88,4.92-2.04l7.92-6.53
			C-215.49-495.49-210.64-495.49-207.28-492.72z"/>
	</g>
	<g id="g9980" transform="translate(241.9648,436.0479)">
		<path id="path9982" class="st23" d="M-181.82-415.37c1.26-0.16,2.55-0.24,3.86-0.24c16.64,0,30.13,13.49,30.13,30.13
			c0,16.64-13.49,30.13-30.13,30.13c-16.64,0-30.13-13.49-30.13-30.13c0-12.25,7.31-22.79,17.8-27.5"/>
	</g>
	<g id="g9984" transform="translate(230.4883,271.5488)">
		<path id="path9986" class="st23" d="M-173.5-205.67c-1.12,0-2.2-0.45-3-1.24l-9-9c-1.66-1.66-1.66-4.34,0-6
			c1.66-1.66,4.34-1.66,6,0l6,6l16.65-16.65c1.66-1.66,4.34-1.66,6,0c1.66,1.66,1.66,4.34,0,6l-19.65,19.65
			C-171.29-206.12-172.37-205.67-173.5-205.67z"/>
	</g>
</g>
</svg>
